mtllib wooden+sign+3d+model.mtl
o tripo_node_cbd90301-c365-4347-bb8e-cfeebc9b6b7d
g tripo_node_cbd90301-c365-4347-bb8e-cfeebc9b6b7d
usemtl tripo_node_cbd90301_c365_4347_bb8e_cfeebc9b6b7d_material
v -0.381835878 0.000000000 0.176757857
vt 0.017333984 0.946533203
vn -0.937938809 -0.000000026 0.346801043
v -0.381835878 0.058593750 0.176757857
vt 0.017333984 0.919189453
vn -0.692162871 0.676431775 0.251695633
v -0.391601503 0.000000000 0.127929732
vt 0.040039062 0.946533203
vn -0.994719684 -0.000000039 0.102629930
v -0.362304628 0.058593750 0.211914107
vt 0.000732422 0.918945312
vn -0.401948690 0.606863916 0.685677350
v -0.362304628 0.000000000 0.211914107
vt 0.000732422 0.946289062
vn -0.502893448 0.000000016 0.864348412
v -0.391601503 0.058593750 0.127929732
vt 0.040039062 0.919189453
vn -0.724746585 0.685358107 0.070899189
v -0.391601562 0.000000000 -0.127929643
vt 0.159423828 0.946289062
vn -1.000000000 -0.000000044 0.000000131
v -0.391601562 0.058593750 -0.127929643
vt 0.159423828 0.919189453
vn -0.707106829 0.707106709 0.000000062
v -0.391601562 0.000000000 -0.186523393
vt 0.186767578 0.946289062
vn -0.884746909 -0.000000059 -0.466071874
v -0.391601562 0.058593750 -0.186523393
vt 0.186767578 0.918945312
vn -0.698948205 0.612561166 -0.369107366
vt 0.738037109 0.394775391
vt 0.754394531 0.403808594
vt 0.715332031 0.390136719
v -0.264648378 0.058593780 0.211914092
vt 0.754394531 0.449218750
vn 0.000000062 0.707106829 0.707106709
v 0.264648497 0.058593780 0.211914033
vt 0.754394531 0.696289062
v 0.391601622 0.058593810 0.127929643
vt 0.715332031 0.755371094
vn 0.724746585 0.685358167 0.070898987
v 0.362304747 0.058593810 0.211914018
vt 0.754394531 0.741699219
vn 0.401948869 0.606863976 0.685677290
v 0.381835997 0.058593810 0.176757768
vt 0.738037109 0.750976562
vn 0.695853353 0.672131062 0.253037453
v 0.391601562 0.058593810 -0.127929732
vt 0.596679688 0.755371094
vn 0.707106709 0.707106829 -0.000000124
vt 0.596679688 0.390136719
v -0.354492188 0.058593750 -0.211914018
vt 0.557617188 0.407470703
vn -0.227747276 0.643974662 -0.730361521
vt 0.569580078 0.390136719
v -0.264648438 0.058593780 -0.211914033
vt 0.557617188 0.449218750
vn -0.000000124 0.707106709 -0.707106829
v 0.264648438 0.058593780 -0.211914092
vt 0.557617188 0.696289062
v 0.354492188 0.058593810 -0.211914107
vt 0.557617188 0.738281250
vn 0.227747008 0.643974602 -0.730361581
v 0.391601562 0.058593810 -0.186523482
vt 0.569580078 0.755371094
vn 0.698948085 0.612561285 -0.369107544
vt 0.474365234 0.736328125
vt 0.447021484 0.736328125
v -0.264648378 0.000000030 0.211914092
vt 0.447021484 0.690917969
vn 0.000000131 0.000000044 1.000000000
vt 0.474365234 0.690917969
v 0.264648497 0.000000030 0.211914033
vt 0.447021484 0.443847656
vt 0.474365234 0.443847656
vt 0.474365234 0.398437500
v 0.362304747 0.000000060 0.211914018
vt 0.447021484 0.398437500
vn 0.496972919 0.007888516 0.867730200
vt 0.652343750 0.933837891
vt 0.652343750 0.906494141
vt 0.668701172 0.933593750
v 0.377929747 0.000000060 0.186523393
vt 0.664062500 0.906250000
vn 0.919522822 0.007859225 0.392958343
v 0.391601622 0.000000060 0.127929643
vt 0.691650391 0.906250000
vn 0.993852854 -0.007887673 0.110427968
vt 0.691650391 0.933593750
vt 0.810791016 0.933837891
v 0.391601562 0.000000060 -0.127929732
vt 0.810791016 0.906494141
vn 1.000000000 0.000000044 -0.000000131
vt 0.838134766 0.933837891
v 0.391601562 0.000000060 -0.186523482
vt 0.838134766 0.906494141
vn 0.884746790 0.000000018 -0.466072112
vt 0.036132812 0.373535156
vt 0.008789062 0.373535156
v -0.354492188 0.000000000 -0.211914018
vt 0.035156250 0.356201172
vn -0.299621701 -0.000000055 -0.954058170
vt 0.007812500 0.356201172
v -0.264648438 0.000000030 -0.211914033
vt 0.035156250 0.314208984
vn -0.000000131 -0.000000044 -1.000000000
vt 0.007812500 0.314208984
vt 0.007812500 0.067382812
v 0.264648438 0.000000030 -0.211914092
vt 0.035156250 0.067382812
vt 0.007812500 0.025390625
v 0.354492188 0.000000060 -0.211914107
vt 0.035156250 0.025390625
vn 0.299621433 -0.000000029 -0.954058170
vt 0.008789062 0.008056641
vt 0.036132812 0.008056641
v -0.334960878 0.056640655 0.125976607
vt 0.749023438 0.939208984
vn -0.543812990 -0.212796435 0.811779022
v -0.293945253 0.056640655 0.125976607
vt 0.768310547 0.939208984
vn 0.620951116 -0.212223724 0.754573345
v -0.293945253 0.119140655 0.012695353
vt 0.768310547 0.989013672
vn 0.695940316 0.577314198 -0.427054405
v -0.334960878 0.119140655 0.012695358
vt 0.749023438 0.989013672
vn -0.557175636 0.714126527 -0.423767328
vt 0.685546875 0.938232422
vt 0.660644531 0.993164062
v -0.334960878 0.056640655 0.012695361
vt 0.650878906 0.938232422
vn -0.306735069 -0.699985027 -0.644929886
vt 0.037109375 0.343750000
vt 0.037109375 0.287597656
vt 0.055175781 0.294189453
vt 0.500732422 0.589843750
vt 0.500732422 0.529541016
vt 0.526367188 0.543701172
vt 0.420166016 0.781005859
vt 0.404296875 0.756591797
vt 0.420166016 0.746093750
v -0.278320253 0.052734405 0.014648478
vt 0.925292969 0.091308594
vn 0.574642956 -0.566770971 0.590386450
v -0.356445253 0.072265625 0.014648488
vt 0.961914062 0.083007812
vn -0.670623124 0.362925500 0.646954179
v -0.360351503 0.054687500 0.014648490
vt 0.963378906 0.091308594
vn -0.648185849 -0.505901217 0.569138944
v -0.344726503 0.083984375 0.014648486
vt 0.956542969 0.077392578
vn -0.550907791 0.228233293 0.802751660
v -0.344726503 0.107421875 0.014648485
vt 0.956787109 0.066650391
vn -0.725331843 0.236521274 0.646491587
v -0.334960878 0.121093780 0.014648483
vt 0.952392578 0.060058594
vn -0.505632639 0.308119982 0.805852294
v -0.288085938 0.246093780 -0.012695278
vt 0.931884766 0.000488281
vn 0.462322414 -0.383962512 0.799268961
v -0.313476562 0.246093780 -0.012695275
vt 0.943847656 0.000732422
vn -0.448902279 -0.338645667 0.826925576
vt 0.945068359 0.182373047
vt 0.945068359 0.174316406
v -0.356445312 0.072265625 -0.079101510
vt 0.989013672 0.174316406
vn -0.670623302 0.362925440 -0.646954060
v -0.360351562 0.054687500 -0.079101510
vt 0.989013672 0.182617188
vn -0.648186028 -0.505901217 -0.569138825
vt 0.945068359 0.168701172
v -0.344726562 0.083984375 -0.079101518
vt 0.989013672 0.168701172
vn -0.550908029 0.228233233 -0.802751541
v -0.344726562 0.107421875 -0.079101518
vt 0.989013672 0.157958984
vn -0.725332141 0.236521244 -0.646491408
vt 0.945068359 0.157714844
v -0.334960938 0.121093780 -0.079101518
vt 0.989013672 0.151367188
vn -0.590551317 0.236220419 -0.771653473
vt 0.945068359 0.151367188
v -0.327148438 0.246093780 -0.034179647
vt 0.968017578 0.093017578
vn -0.946261644 -0.323306084 0.007885652
vt 0.958007812 0.093017578
v -0.313476562 0.246093780 -0.057617150
vt 0.979003906 0.093017578
vn -0.470983297 -0.180543602 -0.863469124
vt 0.144287109 0.949462891
vt 0.144287109 0.993164062
v -0.278320312 0.052734405 -0.079101518
vt 0.105957031 0.993164062
vn 0.566806078 -0.582550824 -0.582550883
vt 0.105957031 0.949462891
vt 0.666259766 0.350097656
vt 0.666259766 0.388427734
vt 0.658203125 0.386718750
vt 0.652587891 0.381347656
vt 0.641601562 0.381591797
vt 0.635253906 0.377197266
v -0.301757812 0.169921905 -0.079101525
vt 0.612060547 0.362304688
vn 0.149379432 0.165103674 -0.974898219
v -0.288085938 0.246093780 -0.057617154
vt 0.577392578 0.356689453
vn 0.488977760 -0.220828712 -0.843881190
vt 0.577636719 0.368652344
v -0.286132812 0.250000000 -0.059570279
vt 0.575439453 0.355957031
vn 0.488719463 -0.275890052 -0.827670336
v -0.315429688 0.250000000 -0.059570275
vt 0.575683594 0.369628906
vn -0.488719642 -0.275890112 -0.827670217
v -0.315429688 0.271484375 -0.059570275
vt 0.565673828 0.369873047
vn -0.463762701 0.408739835 -0.786038220
v -0.286132812 0.271484375 -0.059570279
vt 0.565429688 0.356201172
vn 0.456169873 0.401114970 -0.794365048
v -0.274414062 0.246093780 -0.034179654
vt 0.951171875 0.885986328
vn 0.922347069 -0.386282086 0.007883204
vt 0.974121094 0.976074219
vt 0.930419922 0.976074219
vt 0.961425781 0.885986328
vt 0.940429688 0.885986328
vt 0.902587891 0.364990234
vt 0.912597656 0.371337891
v -0.286132812 0.250000000 -0.008789029
vt 0.900634766 0.365966797
vn 0.450991303 -0.363957733 0.814948916
vt 0.902587891 0.353271484
v -0.315429688 0.250000000 -0.008789025
vt 0.900634766 0.352294922
vn -0.450991005 -0.363957763 0.814948916
vt 0.912597656 0.346679688
vt 0.529296875 0.512939453
vt 0.530029297 0.526123047
vt 0.527099609 0.513916016
v -0.270507812 0.250000000 -0.034179654
vt 0.532714844 0.526367188
vn 0.937938869 -0.346800894 -0.000000108
vt 0.527099609 0.534667969
vt 0.908935547 0.723632812
vt 0.908691406 0.711669922
v -0.270507812 0.271484375 -0.034179654
vt 0.918945312 0.711669922
vn 0.889653563 0.456636369 -0.000000137
v -0.286132812 0.271484375 -0.008789030
vt 0.918945312 0.723632812
vn 0.426295251 0.481555700 0.765752375
vt 0.908935547 0.699951172
vt 0.918945312 0.699951172
vt 0.046630859 0.326171875
vt 0.048828125 0.327148438
vt 0.045898438 0.339355469
v -0.331054688 0.250000000 -0.034179647
vt 0.043212891 0.339843750
vn -0.937938750 -0.346800923 0.000000138
vt 0.048828125 0.348144531
vt 0.313964844 0.831542969
vt 0.313964844 0.843261719
vt 0.303955078 0.831542969
v -0.331054688 0.271484375 -0.034179647
vt 0.303955078 0.843261719
vn -0.889653563 0.456636310 0.000000097
vt 0.313964844 0.855224609
v -0.315429688 0.271484375 -0.008789026
vt 0.303955078 0.855224609
vn -0.423728138 0.478655934 0.768988252
vt 0.719482422 0.359863281
vt 0.709472656 0.373535156
vt 0.709472656 0.359863281
vt 0.719482422 0.373535156
vt 0.561767578 0.982666016
vt 0.561767578 0.968750000
v -0.327148438 0.273437500 -0.034179647
vt 0.563232422 0.981689453
vn -0.788404346 0.614955306 0.015768163
vt 0.573974609 0.989013672
v -0.313476562 0.273437500 -0.012695276
vt 0.563476562 0.969970703
vn -0.376415551 0.635201335 0.674411356
v -0.313476562 0.273437500 -0.057617150
vt 0.574218750 0.987548828
vn -0.402574569 0.489404172 -0.773574352
vt 0.573242188 0.961669922
vt 0.585693359 0.981689453
v -0.288085938 0.273437500 -0.012695279
vt 0.573486328 0.963623047
vn 0.369335324 0.620797634 0.691521347
v -0.288085938 0.273437500 -0.057617154
vt 0.584472656 0.981445312
vn 0.387366802 0.474326879 -0.790544808
vt 0.585693359 0.967773438
v -0.274414062 0.273437500 -0.034179654
vt 0.584228516 0.968750000
vn 0.781419396 0.623556912 0.023679245
vt 0.851562500 0.530273438
vt 0.861572266 0.530273438
v -0.315429688 0.865234375 -0.014648427
vt 0.861572266 0.806396484
vn -0.110055417 -0.149361059 0.982638836
v -0.315429688 0.855468750 -0.094726548
vt 0.824218750 0.802001953
vn -0.188958928 -0.267691672 -0.944794059
vt 0.840576172 0.530517578
vt 0.801269531 0.809814453
vt 0.526123047 0.823486328
vt 0.525390625 0.811523438
v -0.166992188 0.814453125 -0.026367193
vt 0.774414062 0.741699219
vn 0.078494914 0.007849525 0.996883690
v -0.286132812 0.910156250 -0.030273434
vt 0.822021484 0.794921875
vn 0.605830014 0.558622360 0.566490233
v -0.315429688 0.912109375 -0.020507805
vt 0.823242188 0.808593750
vn 0.007872867 0.645569265 0.763661146
v -0.344726562 0.910156250 -0.030273426
vt 0.823486328 0.822265625
vn -0.598110020 0.574500501 0.558760762
v -0.344726562 0.863281250 -0.026367174
vt 0.801513672 0.823486328
vn -0.534357309 -0.573648453 0.620797694
vt 0.610595703 0.861572266
vt 0.338867188 0.847900391
vt 0.611083984 0.849853516
v -0.166992202 0.808593750 -0.071289070
vt 0.365234375 0.780029297
vn 0.141207829 -0.054914251 -0.988455832
v -0.286132812 0.902343750 -0.088867180
vt 0.317871094 0.833007812
vn 0.597167611 0.432160854 -0.675742447
v -0.315429688 0.902343750 -0.098632798
vt 0.316894531 0.846679688
vn -0.007897199 0.418544233 -0.908162057
v -0.344726562 0.902343750 -0.088867173
vt 0.316406250 0.860351562
vn -0.599187434 0.425738305 -0.678027630
v -0.344726562 0.855468750 -0.083007798
vt 0.338623047 0.861572266
vn -0.527477324 -0.716424465 -0.456622094
vt 0.836181641 0.299316406
vt 0.826171875 0.299072266
v -0.274414062 0.906250000 -0.059570309
vt 0.822265625 0.003662109
vn 0.866437256 0.496232271 -0.055137049
vt 0.836181641 0.002197266
vt 0.815185547 0.298583984
vt 0.808593750 0.004882812
vt 0.182617188 0.979248047
vt 0.171142578 0.989013672
v -0.288085938 0.912109375 -0.059570309
vt 0.169433594 0.982666016
vn 0.786938190 0.613811910 -0.062955193
vt 0.156494141 0.988037109
v -0.295898438 0.914062500 -0.040039059
vt 0.177001953 0.976318359
vn 0.512176394 0.717046916 0.472778112
v -0.295898438 0.908203125 -0.081054680
vt 0.158691406 0.982666016
vn 0.526499093 0.597223043 -0.605081260
v -0.315429688 0.914062500 -0.032226555
vt 0.177490234 0.966552734
vn 0.015728591 0.770698488 0.637005866
v -0.315429688 0.908203125 -0.088867173
vt 0.152343750 0.975097656
vn -0.007879526 0.512160361 -0.858853698
vt 0.182617188 0.964843750
vt 0.147705078 0.976562500
v -0.334960938 0.914062500 -0.040039051
vt 0.171142578 0.959228516
vn -0.527477264 0.716424406 0.456622154
v -0.334960938 0.908203125 -0.081054673
vt 0.152832031 0.965332031
vn -0.526434302 0.589292049 -0.612863660
vt 0.173828125 0.953369141
vt 0.147705078 0.962158203
v -0.356445312 0.906250000 -0.059570298
vt 0.158935547 0.952636719
vn -0.866034389 0.496001452 -0.062984228
v -0.342773438 0.912109375 -0.059570301
vt 0.161132812 0.958740234
vn -0.787303984 0.614097059 -0.055111200
vt 0.609130859 0.986816406
vt 0.599853516 0.986328125
v -0.288085938 0.964843750 -0.067382812
vt 0.599853516 0.961669922
vn 0.598276913 -0.787206352 0.149569169
v -0.295898438 0.966796875 -0.047851559
vt 0.608886719 0.961914062
vn 0.534126699 -0.628384233 0.565545678
vt 0.589843750 0.986816406
v -0.295898438 0.960937500 -0.086914062
vt 0.590576172 0.962158203
vn 0.552209139 -0.686317146 -0.473322213
vt 0.993164062 0.817871094
vt 0.993164062 0.842529297
vt 0.984130859 0.842285156
v -0.315429688 0.960937500 -0.094726555
vt 0.984130859 0.817382812
vn -0.000000037 -0.830842495 -0.556507587
v -0.334960938 0.960937500 -0.086914055
vt 0.974853516 0.817871094
vn -0.552209258 -0.686317146 -0.473322093
vt 0.974853516 0.842529297
vt 0.968505859 0.695800781
vt 0.968505859 0.671142578
vt 0.977783203 0.696044922
v -0.315429688 0.966796875 -0.040039055
vt 0.977783203 0.671386719
vn 0.000000131 -0.606280446 0.795251012
v -0.334960938 0.966796875 -0.047851551
vt 0.986816406 0.671142578
vn -0.506185830 -0.640641570 0.577368438
vt 0.986816406 0.695800781
vt 0.672607422 0.346679688
vt 0.686279297 0.352050781
vt 0.672607422 0.384033203
v -0.356445312 0.859375000 -0.053710919
vt 0.691894531 0.364990234
vn -0.764680862 -0.638548017 0.086716518
vt 0.686279297 0.378662109
vt 0.253906250 0.860351562
vt 0.275878906 0.859375000
vt 0.253662109 0.873291016
vt 0.275878906 0.873291016
vt 0.275878906 0.886962891
vt 0.253662109 0.886962891
vt 0.676757812 0.989013672
vt 0.676757812 0.964111328
vt 0.685791016 0.988525391
v -0.342773438 0.964843750 -0.067382805
vt 0.686035156 0.963623047
vn -0.591984332 -0.797205567 0.118396990
vt 0.695312500 0.964111328
vt 0.696044922 0.989013672
v -0.315429688 0.968750000 -0.034179684
vt 0.856201172 0.956054688
vn 0.000000136 -0.466071963 0.884746850
vt 0.857177734 0.958496094
vt 0.850097656 0.965332031
vt 0.866943359 0.958496094
v -0.291992188 0.968750000 -0.043945312
vt 0.847900391 0.964355469
vn 0.598110199 -0.464322209 0.653199077
v -0.338867188 0.968750000 -0.043945305
vt 0.867919922 0.956054688
vn -0.597186029 -0.455747306 0.660047889
vt 0.850341797 0.975341797
v -0.348632812 0.964843750 -0.067382805
vt 0.876464844 0.964355469
vn -0.785552859 -0.612731397 0.086410962
v -0.282226562 0.964843750 -0.067382812
vt 0.847900391 0.976318359
vn 0.778153896 -0.620950937 0.094321601
vt 0.874023438 0.965332031
vt 0.857177734 0.982177734
vt 0.874023438 0.975341797
v -0.291992188 0.962890625 -0.090820312
vt 0.856201172 0.984619141
vn 0.620950997 -0.542349637 -0.565930068
v -0.338867188 0.962890625 -0.090820305
vt 0.876464844 0.976318359
vn -0.620951116 -0.542349637 -0.565929949
v -0.315429688 0.960937500 -0.100585930
vt 0.868164062 0.984619141
vn -0.000000071 -0.654030144 -0.756468534
vt 0.866943359 0.982177734
vt 0.913574219 0.990966797
vt 0.913574219 0.979980469
v -0.348632812 0.994140625 -0.071289055
vt 0.927490234 0.980712891
vn -0.771749377 0.629999340 -0.086624853
v -0.338867188 0.990234375 -0.092773430
vt 0.926513672 0.990966797
vn -0.567421973 0.520136714 -0.638349533
vt 0.914550781 0.968994141
v -0.338867188 0.996093750 -0.047851555
vt 0.927490234 0.969726562
vn -0.567721605 0.662341952 0.488871485
vt 0.995361328 0.315917969
vt 0.994628906 0.326904297
vt 0.981933594 0.326904297
v -0.315429688 0.990234375 -0.102539055
vt 0.981689453 0.315917969
vn 0.007905315 0.569192171 -0.822166502
v -0.291992188 0.990234375 -0.092773438
vt 0.981933594 0.304931641
vn 0.544455886 0.552346706 -0.631253421
vt 0.994628906 0.304931641
vt 0.443115234 0.984375000
vt 0.443115234 0.972656250
vt 0.450683594 0.964599609
vt 0.451416016 0.992919922
v -0.282226562 0.994140625 -0.071289062
vt 0.462646484 0.993164062
vn 0.764680862 0.638548017 -0.086716518
v -0.291992188 0.996093750 -0.047851562
vt 0.470947266 0.984863281
vn 0.552209258 0.686317146 0.473322093
v -0.315429688 0.998046875 -0.038085934
vt 0.471191406 0.972900391
vn 0.007852196 0.730248988 0.683135986
vt 0.462646484 0.964599609
vt 0.988769531 0.751220703
vt 0.976074219 0.750976562
vt 0.975097656 0.740966797
vt 0.989013672 0.740234375
vt 0.988037109 0.729248047
vt 0.975097656 0.729980469
vt 0.979736328 0.253906250
vt 0.992675781 0.253906250
vt 0.979492188 0.264892578
vt 0.993164062 0.264892578
vt 0.992675781 0.275878906
vt 0.979736328 0.275878906
v -0.166992158 0.056640655 0.002929714
vt 0.189941406 0.989013672
vn 0.789165080 -0.284099340 0.544523716
v -0.284179628 0.154296905 0.002929725
vt 0.189941406 0.917724609
vn -0.354198962 0.755624592 0.550976217
v -0.284179628 0.056640655 0.002929729
vt 0.224853516 0.946777344
vn -0.561111331 -0.561111450 0.608529449
vt 0.956298828 0.057373047
vt 0.956298828 0.002685547
v -0.166992158 0.056640655 -0.038085911
vt 0.975585938 0.057373047
vn 0.820118845 -0.283887327 -0.496802956
v -0.288085938 0.052734405 -0.057617147
vt 0.984619141 0.000732422
vn -0.543644309 -0.535765350 -0.646069944
vt 0.942138672 0.094238281
vt 0.942138672 0.149169922
v -0.284179688 0.154296905 -0.038085900
vt 0.923339844 0.095703125
vn -0.353608072 0.793653369 -0.495051086
vt 0.923339844 0.150634766
vt 0.033203125 0.949951172
vt 0.052490234 0.949951172
vt 0.033203125 0.995605469
vt 0.061523438 0.997314453
vt 0.250488281 0.993164062
vt 0.250488281 0.936767578
vt 0.297119141 0.939453125
v -0.301757753 0.173828155 0.024414102
vt 0.972412109 0.932617188
vn 0.000000128 -0.645589232 0.763684928
v -0.327148438 0.208984405 0.016601603
vt 0.989013672 0.944335938
vn -0.582154036 0.385480404 0.715892196
v -0.327148378 0.173828155 0.016601605
vt 0.972656250 0.944335938
vn -0.489846885 -0.632060647 0.600457668
v -0.301757753 0.208984405 0.024414100
vt 0.988769531 0.932617188
vn 0.000000101 0.415574491 0.909559190
v -0.276367128 0.173828155 0.016601598
vt 0.972656250 0.920654297
vn 0.489847124 -0.632060647 0.600457549
v -0.276367188 0.208984405 0.016601596
vt 0.989013672 0.920654297
vn 0.572870791 0.415919900 0.706278861
vt 0.311523438 0.937500000
vt 0.323486328 0.941162109
vt 0.299804688 0.941162109
v -0.338867188 0.173828155 -0.004882769
vt 0.328857422 0.951171875
vn -0.732624114 -0.653847456 0.189064428
v -0.264648438 0.173828155 -0.004882778
vt 0.294189453 0.951171875
vn 0.732624292 -0.653847396 0.189064279
v -0.338867188 0.173828155 -0.065429643
vt 0.328857422 0.979492188
vn -0.732624233 -0.653847516 -0.189064220
v -0.264648438 0.173828155 -0.065429650
vt 0.294189453 0.979492188
vn 0.732624292 -0.653847396 -0.189064384
v -0.327148438 0.173828155 -0.086914018
vt 0.323486328 0.989501953
vn -0.489847064 -0.632060647 -0.600457549
v -0.276367188 0.173828155 -0.086914025
vt 0.299804688 0.989501953
vn 0.489846945 -0.632060647 -0.600457668
v -0.301757812 0.173828155 -0.094726525
vt 0.311523438 0.993164062
vn -0.000000072 -0.645589292 -0.763684809
vt 0.354248047 0.414306641
vt 0.370849609 0.414306641
v -0.338867188 0.208984405 -0.004882771
vt 0.370605469 0.424316406
vn -0.904027700 0.361611068 0.227972314
vt 0.354248047 0.424316406
v -0.338867188 0.208984405 -0.065429643
vt 0.370849609 0.452636719
vn -0.895668626 0.377123594 -0.235702172
vt 0.354248047 0.452636719
v -0.327148438 0.208984405 -0.086914018
vt 0.370849609 0.462646484
vn -0.582154214 0.385480314 -0.715892136
vt 0.354492188 0.462646484
v -0.333007812 0.214843780 -0.004882771
vt 0.373535156 0.424316406
vn -0.426787496 0.893092275 0.142262504
v -0.323242188 0.214843780 0.010742228
vt 0.373535156 0.416992188
vn -0.267030329 0.911044717 0.314153343
v -0.333007812 0.214843780 -0.063476518
vt 0.373535156 0.451660156
vn -0.409842968 0.906383336 -0.102460712
vt 0.406738281 0.951416016
vt 0.412353516 0.941406250
vt 0.414062500 0.943847656
vt 0.424072266 0.937744141
v -0.301757812 0.214843780 0.016601600
vt 0.424072266 0.941162109
vn 0.007895592 0.931679010 0.363196880
v -0.282226562 0.214843780 0.010742222
vt 0.433105469 0.943847656
vn 0.212809637 0.930056930 0.299509823
vt 0.436035156 0.941406250
vt 0.409423828 0.951171875
v -0.272460938 0.214843780 -0.004882779
vt 0.437744141 0.951171875
vn 0.354155093 0.928673387 0.110181510
v -0.264648438 0.208984405 -0.004882780
vt 0.441406250 0.951416016
vn 0.883177519 0.417932242 0.212908730
vt 0.409423828 0.978271484
v -0.272460938 0.214843780 -0.063476525
vt 0.437744141 0.978271484
vn 0.338561624 0.936949790 -0.086608887
v -0.264648438 0.208984405 -0.065429650
vt 0.441406250 0.979492188
vn 0.876956701 0.426627636 -0.221214443
v -0.276367188 0.208984405 -0.086914025
vt 0.436035156 0.989501953
vn 0.576054454 0.418231398 -0.702313185
v -0.282226562 0.214843780 -0.081054650
vt 0.433105469 0.986572266
vn 0.220828652 0.930635333 -0.291809440
v -0.301757812 0.208984405 -0.094726525
vt 0.424072266 0.993164062
vn -0.000000137 0.415574431 -0.909559190
v -0.301757812 0.214843780 -0.086914025
vt 0.424072266 0.989257812
vn 0.007895497 0.931679010 -0.363196939
v -0.323242188 0.214843780 -0.081054643
vt 0.414062500 0.986572266
vn -0.267030418 0.911044717 -0.314153343
vt 0.406738281 0.979492188
vt 0.412353516 0.989501953
vt 0.910400391 0.984619141
vt 0.894042969 0.984619141
vt 0.894042969 0.974609375
vt 0.910400391 0.974609375
vt 0.894042969 0.946289062
vt 0.910400391 0.946289062
vt 0.894042969 0.936279297
vt 0.910400391 0.936279297
vt 0.912841797 0.951660156
vt 0.913085938 0.939697266
vt 0.929199219 0.951660156
vt 0.929443359 0.939697266
vt 0.929443359 0.963378906
vt 0.913085938 0.963378906
v -0.368164062 0.330078125 -0.061523397
vt 0.961181641 0.598388672
vn 0.537553549 -0.656131625 -0.529648483
v -0.366210938 0.341796875 0.045898478
vt 0.960449219 0.548095703
vn 0.583183706 -0.512255847 0.630468667
v -0.409179688 0.341796875 0.045898482
vt 0.980468750 0.548095703
vn -0.575588703 -0.520395339 0.630782306
v -0.409179688 0.330078125 -0.061523393
vt 0.980468750 0.598388672
vn -0.575052857 -0.638072252 -0.512033224
vt 0.250488281 0.864013672
vt 0.250000000 0.914306641
v -0.416992188 0.873046875 -0.002929664
vt 0.001220703 0.916748047
vn -0.580825508 0.627919495 0.518033683
v -0.416992188 0.861328125 -0.118164040
vt 0.001220703 0.862792969
vn -0.583183706 0.512255847 -0.630468667
vt 0.551025391 0.882080078
vt 0.799804688 0.884033203
vt 0.800048828 0.904052734
v -0.370117188 0.873046875 -0.002929670
vt 0.551269531 0.904052734
vn 0.575588882 0.630782247 0.520395279
vt 0.298339844 0.863769531
vt 0.547607422 0.860839844
vt 0.298339844 0.882812500
v -0.370117188 0.861328125 -0.118164040
vt 0.547363281 0.882812500
vn 0.575052738 0.512033343 -0.638072371
vt 0.958496094 0.488037109
vt 0.958496094 0.434082031
vt 0.980468750 0.434082031
vt 0.980468750 0.488037109
vt 0.863769531 0.878662109
vt 0.614501953 0.878662109
v -0.370117188 0.855468750 -0.108398415
vt 0.617675781 0.874267578
vn 0.905062914 0.267583847 -0.330544859
vt 0.614746094 0.824462891
v -0.366210938 0.341796875 -0.053710897
vt 0.858642578 0.874267578
vn 0.848816454 -0.392970562 -0.353673577
v -0.370117188 0.865234375 -0.010742170
vt 0.617919922 0.828613281
vn 0.905063093 0.330544800 0.267583728
vt 0.863525391 0.828125000
v -0.366210938 0.351562500 0.036132853
vt 0.858642578 0.832275391
vn 0.901221097 -0.268785179 0.339934111
vt 0.403564453 0.398925781
vt 0.445556641 0.398925781
v 0.366210938 0.351562560 0.038085882
vt 0.402587891 0.740722656
vn -0.902689874 -0.266882271 0.337527633
v 0.366210938 0.341796935 -0.053710993
vt 0.445556641 0.740722656
vn -0.848816395 -0.392970622 -0.353673369
vt 0.343994141 0.827636719
vt 0.002441406 0.827636719
vt 0.345947266 0.586914062
v 0.370117188 0.865234435 -0.010742267
vt 0.000488281 0.586914062
vn -0.905063093 0.330544740 0.267583966
vt 0.804199219 0.343994141
vt 0.563476562 0.345947266
vt 0.804199219 0.002441406
v 0.370117188 0.855468810 -0.108398519
vt 0.563476562 0.000488281
vn -0.905063152 0.267583817 -0.330544651
vt 0.005859375 0.460449219
vt 0.005859375 0.414794922
vt 0.351318359 0.460449219
vt 0.351318359 0.414794922
vt 0.848388672 0.245361328
vt 0.891357422 0.245361328
v 0.366210938 0.341796935 0.047851507
vt 0.844238281 0.250488281
vn -0.583183527 -0.512255847 0.630468845
vt 0.845458984 0.004638672
v 0.368164062 0.330078185 -0.061523493
vt 0.895507812 0.250488281
vn -0.537553668 -0.656131625 -0.529648364
v 0.370117188 0.873046935 -0.002929767
vt 0.841552734 0.001464844
vn -0.575588763 0.630782247 0.520395398
vt 0.891357422 0.004394531
v 0.370117188 0.861328185 -0.118164144
vt 0.895507812 0.001220703
vn -0.575052917 0.512033284 -0.638072193
vt 0.980468750 0.492187500
vt 0.979492188 0.543212891
v 0.409179688 0.341796935 0.047851503
vt 0.960449219 0.492187500
vn 0.575588942 -0.520395339 0.630782187
v 0.409179688 0.330078185 -0.061523497
vt 0.960449219 0.543212891
vn 0.575052738 -0.638072252 -0.512033343
vt 0.958496094 0.428710938
vt 0.958496094 0.374755859
v 0.416992188 0.861328185 -0.118164144
vt 0.980468750 0.428710938
vn 0.583183527 0.512255847 -0.630468845
v 0.416992188 0.873046935 -0.002929773
vt 0.980468750 0.374755859
vn 0.580825627 0.627919495 0.518033564
vt 0.476806641 0.404541016
vt 0.498779297 0.404296875
vt 0.476806641 0.653564453
vt 0.495849609 0.653564453
vt 0.886962891 0.506591797
vt 0.886962891 0.755371094
vt 0.865234375 0.506347656
vt 0.866943359 0.755371094
vt 0.838623047 0.253906250
vt 0.890136719 0.253662109
vt 0.837158203 0.502929688
vt 0.891357422 0.502929688
v -0.428710938 0.341796875 -0.075195260
vt 0.550048828 0.648681641
vn -0.684001267 -0.369517952 -0.628966510
v -0.420898438 0.345703125 0.053710986
vt 0.555664062 0.702392578
vn -0.330084950 -0.793775976 0.510846019
v -0.428710938 0.355468750 0.057617236
vt 0.550048828 0.704589844
vn -0.676431715 -0.251695573 0.692162931
v -0.420898438 0.332031250 -0.069335893
vt 0.555908203 0.650878906
vn -0.347189367 -0.867973447 -0.355079949
vt 0.000976562 0.475585938
vt 0.004638672 0.471191406
v 0.428710938 0.355468810 0.057617124
vt 0.401123047 0.475585938
vn 0.698883653 -0.235578656 0.675325453
v 0.420898438 0.345703185 0.055663999
vt 0.397460938 0.471191406
vn 0.331253439 -0.741376519 0.583636880
v -0.428710938 0.402343750 0.051757857
vt 0.000976562 0.497558594
vn -0.620567679 0.526304305 0.581291378
v 0.428710938 0.402343810 0.053710870
vt 0.401123047 0.497558594
vn 0.622781336 0.512414992 0.591248035
vt 0.226318359 0.980468750
vt 0.226318359 0.918212891
vt 0.248291016 0.918701172
v -0.428710938 0.386718750 -0.079101510
vt 0.247314453 0.979980469
vn -0.627128124 0.376276761 -0.682001591
vt 0.000976562 0.584960938
vt 0.000976562 0.527343750
v 0.420898438 0.332031310 -0.069335997
vt 0.393554688 0.527099609
vn 0.339934170 -0.837977350 -0.426894128
vt 0.393554688 0.585693359
vt 0.004638672 0.499511719
vt 0.397460938 0.499511719
v 0.428710938 0.341796935 -0.073242255
vt 0.000976562 0.504150391
vn 0.700961232 -0.362294585 -0.614325702
vt 0.401123047 0.504150391
vt 0.401123047 0.525146484
v 0.428710938 0.386718810 -0.079101630
vt 0.000976562 0.525146484
vn 0.615606129 0.386727035 -0.686637759
vt 0.547851562 0.710205078
vt 0.553955078 0.708984375
vt 0.548095703 0.762695312
vt 0.553955078 0.763916016
vt 0.886962891 0.761718750
vt 0.886230469 0.823242188
vt 0.865234375 0.823486328
vt 0.865234375 0.760986328
vt 0.401123047 0.469970703
vt 0.000976562 0.469970703
v -0.422851562 0.392578125 -0.071289018
vt 0.003906250 0.466064453
vn -0.560866356 0.616162956 -0.552966654
vt 0.000976562 0.408691406
v 0.422851562 0.392578185 -0.069335997
vt 0.398437500 0.465332031
vn 0.566858768 0.645589292 -0.511747658
v -0.422851562 0.406250000 0.041992232
vt 0.003906250 0.412841797
vn -0.582154036 0.715892136 0.385480374
vt 0.401123047 0.407714844
v 0.422851562 0.406250060 0.043945245
vt 0.398437500 0.412109375
vn 0.582154095 0.715892196 0.385480255
vt 0.309814453 0.001220703
vt 0.309814453 0.395751953
v -0.422851562 0.792968750 -0.110351540
vt 0.122070312 0.395751953
vn -0.448360533 -0.810195327 -0.377566695
v 0.422851562 0.792968810 -0.110351644
vt 0.122070312 0.001220703
vn 0.454611897 -0.807328045 -0.376230597
vt 0.400878906 0.589111328
vt 0.401123047 0.776611328
vt 0.347900391 0.775634766
v -0.422851562 0.804687500 0.002929715
vt 0.347900391 0.588867188
vn -0.480956376 -0.654416203 0.583455503
vt 0.648437500 0.906005859
vt 0.649414062 0.959228516
vt 0.461669922 0.959228516
v 0.422851562 0.804687560 0.002929604
vt 0.461669922 0.906005859
vn 0.488022745 -0.676934600 0.550993204
vt 0.311035156 0.395751953
vt 0.310791016 0.001220703
vt 0.497558594 0.395751953
vt 0.497558594 0.001220703
vt 0.006347656 0.400878906
vt 0.059326172 0.400878906
v 0.434570312 0.812500060 0.014648352
vt 0.000732422 0.406494141
vn 0.621893167 -0.393603116 0.676997423
vt 0.006103516 0.006347656
v 0.434570312 0.796875060 -0.122070402
vt 0.064697266 0.406494141
vn 0.616162956 -0.552966774 -0.560866356
v -0.434570312 0.812500000 0.012695340
vt 0.001464844 0.000976562
vn -0.629999280 -0.393749624 0.669374406
vt 0.059082031 0.006347656
v -0.434570312 0.796875000 -0.122070283
vt 0.064697266 0.000976562
vn -0.613432109 -0.550515950 -0.566244900
vt 0.093261719 0.000976562
vt 0.093261719 0.406494141
v 0.434570312 0.853515685 0.008788975
vt 0.074218750 0.406494141
vn 0.732079327 0.259770095 0.629745483
v -0.434570312 0.853515625 0.008789089
vt 0.074218750 0.000976562
vn -0.715825617 0.267451346 0.645029843
v 0.426757812 0.869140685 0.006835850
vt 0.066650391 0.402832031
vn 0.416536003 0.746621013 0.518705010
v -0.426757812 0.869140625 0.004882837
vt 0.066650391 0.004638672
vn -0.425315529 0.771868944 0.472572893
vt 0.529296875 0.473144531
vt 0.529296875 0.409912109
vt 0.548583984 0.409667969
v -0.434570312 0.837890625 -0.125976533
vt 0.548583984 0.472900391
vn -0.720843017 0.125363916 -0.681666493
v -0.426757812 0.853515625 -0.125976533
vt 0.555908203 0.471923828
vn -0.415676832 0.643122435 -0.643122375
vt 0.555908203 0.410400391
vt 0.120849609 0.000976562
vt 0.120849609 0.406494141
vt 0.101806641 0.406494141
v 0.434570312 0.837890685 -0.125976652
vt 0.101806641 0.000976562
vn 0.720842779 0.125363976 -0.681666732
v 0.426757812 0.853515685 -0.125976652
vt 0.094482422 0.004638672
vn 0.415676594 0.643122435 -0.643122494
vt 0.094482422 0.402832031
vt 0.965576172 0.250000000
vt 0.984619141 0.186279297
vt 0.984619141 0.250488281
vt 0.965332031 0.186767578
vt 0.958251953 0.249267578
vt 0.958007812 0.186767578
vt 0.499023438 0.000732422
vt 0.560302734 0.000732422
vt 0.499023438 0.398925781
vt 0.561279297 0.398925781
v -0.336914062 0.056640655 -0.077148385
vt 0.747070312 0.989013672
vn -0.306734860 -0.699984968 0.644930065
v -0.336914062 0.119140655 -0.077148393
vt 0.717773438 0.989013672
vn -0.557175577 0.714126527 0.423767388
v -0.336914062 0.056640655 -0.190429643
vt 0.747070312 0.936035156
vn -0.543813229 -0.212796509 -0.811778903
vt 0.957031250 0.309814453
vt 0.957031250 0.254394531
v -0.295898438 0.056640655 -0.190429643
vt 0.976074219 0.309814453
vn 0.620950937 -0.212223768 -0.754573464
v -0.295898438 0.119140655 -0.077148400
vt 0.976074219 0.254394531
vn 0.695940435 0.577314198 0.427054167
vt 0.806396484 0.564453125
vt 0.788330078 0.570800781
vt 0.788330078 0.514648438
vt 0.715087891 0.989013672
vt 0.686279297 0.936035156
vt 0.715087891 0.936035156
vt 0.527343750 0.511474609
vt 0.527343750 0.476562500
vt 0.543212891 0.487060547
v -0.329101562 0.445312500 -0.063476533
vt 0.823486328 0.341796875
vn -0.566034853 -0.676097333 0.471695960
v -0.329101562 0.453125000 -0.090820283
vt 0.836181641 0.341796875
vn -0.589383066 -0.487223327 -0.644392014
v -0.270507812 0.445312500 -0.063476540
vt 0.823486328 0.369140625
vn 0.566035032 -0.676097274 0.471695781
v -0.270507812 0.453125000 -0.090820290
vt 0.836181641 0.369140625
vn 0.589382946 -0.487223268 -0.644392133
vt 0.845458984 0.527832031
vt 0.832519531 0.530517578
v -0.329101562 0.500000000 -0.059570283
vt 0.832519531 0.504882812
vn -0.561479747 0.648469627 0.514030874
v -0.329101562 0.490234375 -0.090820283
vt 0.846679688 0.510498047
vn -0.598964095 0.472866207 -0.646250486
vt 0.530517578 0.989013672
vt 0.505126953 0.989013672
vt 0.505126953 0.961669922
v -0.270507812 0.500000000 -0.059570290
vt 0.530517578 0.961669922
vn 0.561479867 0.648469627 0.514030755
vt 0.886962891 0.241943359
vt 0.874023438 0.239257812
v -0.270507812 0.490234375 -0.090820290
vt 0.872802734 0.221923828
vn 0.598963857 0.472866267 -0.646250606
vt 0.886962891 0.216308594
vt 0.814697266 0.615722656
vt 0.831787109 0.615722656
vt 0.814697266 0.643066406
vt 0.831787109 0.643066406
vt 0.812744141 0.704589844
vt 0.812744141 0.677246094
vt 0.827636719 0.704589844
vt 0.827636719 0.677246094
v -0.233398423 0.375000030 -0.077148415
vt 0.940185547 0.153564453
vn -0.592723429 -0.545305431 -0.592723310
v -0.180664048 0.369140625 -0.041992173
vt 0.923828125 0.178222656
vn 0.566490412 -0.605829895 0.558622301
v -0.233398423 0.369140625 -0.041992165
vt 0.923828125 0.153564453
vn -0.566490173 -0.605829954 0.558622420
v -0.180664048 0.375000030 -0.077148423
vt 0.940185547 0.178222656
vn 0.592723310 -0.545305431 -0.592723429
vt 0.794677734 0.583496094
vt 0.810546875 0.579345703
v -0.233398452 0.822265625 -0.083007812
vt 0.810546875 0.791503906
vn -0.562183321 0.712626815 0.419658035
v -0.233398452 0.808593750 -0.114257812
vt 0.795654297 0.786621094
vn -0.596670687 0.408248186 -0.690881670
vt 0.619628906 0.836914062
vt 0.831787109 0.836914062
vt 0.831787109 0.861572266
v -0.180664077 0.822265625 -0.083007820
vt 0.619628906 0.861572266
vn 0.562183380 0.712626874 0.419657975
vt 0.906982422 0.933837891
vt 0.906982422 0.730712891
vt 0.931640625 0.933837891
v -0.180664077 0.808593750 -0.114257820
vt 0.931640625 0.730712891
vn 0.596670508 0.408248305 -0.690881848
vt 0.888916016 0.920898438
vt 0.888916016 0.896484375
vt 0.904052734 0.896484375
vt 0.904052734 0.920898438
vt 0.036865234 0.216552734
vt 0.037841797 0.013427734
vt 0.052978516 0.220703125
vt 0.052978516 0.008544922
v -0.278320312 0.890625000 -0.043945309
vt 0.765625000 0.447753906
vn -0.504061878 0.094511643 0.858480692
v -0.278320312 0.875000000 -0.055664055
vt 0.758789062 0.447753906
vn -0.495909244 -0.858001828 0.133816898
v -0.260742188 0.878906250 -0.055664059
vt 0.760498047 0.439453125
vn 0.133395985 -0.973005533 0.188323677
v -0.260742188 0.890625000 -0.047851562
vt 0.765625000 0.439453125
vn 0.117811263 0.149227485 0.981759489
v -0.278320312 0.904296875 -0.059570309
vt 0.772460938 0.447753906
vn -0.495740443 0.865578473 -0.070820019
v -0.219726577 0.878906250 -0.055664062
vt 0.760498047 0.420410156
vn 0.494212717 -0.855066359 0.156892896
v -0.217773452 0.890625000 -0.047851566
vt 0.765625000 0.419433594
vn 0.598573804 0.094511695 0.795472801
vt 0.457031250 0.750488281
vt 0.457275391 0.741455078
v -0.278320312 0.886718750 -0.073242180
vt 0.466796875 0.751220703
vn -0.488249689 -0.157499909 -0.858374178
vt 0.466796875 0.740966797
vt 0.557373047 0.759765625
vt 0.557373047 0.749755859
vt 0.564208984 0.758789062
v -0.260742188 0.888671875 -0.069335930
vt 0.564453125 0.750732422
vn 0.126187727 -0.110414401 -0.985842526
vt 0.500244141 0.603759766
vt 0.499511719 0.595703125
vt 0.507080078 0.595703125
v -0.260742188 0.900390625 -0.059570312
vt 0.505371094 0.603759766
vn 0.117687739 0.988577425 -0.094150290
v -0.217773452 0.900390625 -0.059570316
vt 0.505371094 0.624023438
vn 0.576773345 0.813803494 -0.071109153
v -0.217773452 0.888671875 -0.069335938
vt 0.500244141 0.624023438
vn 0.583111107 -0.118198238 -0.803747952
vt 0.733642578 0.360107422
vt 0.738525391 0.368408203
vt 0.733398438 0.368408203
vt 0.733398438 0.388427734
vt 0.738525391 0.388427734
vt 0.423583984 0.743408203
vt 0.430908203 0.743896484
vt 0.430175781 0.750976562
vt 0.423583984 0.751220703
vt 0.630371094 0.777832031
vt 0.630371094 0.758789062
vt 0.636718750 0.758789062
vt 0.636718750 0.778808594
v -0.221679702 0.900390625 -0.081054688
vt 0.949951172 0.999511719
vn -0.678365171 0.189311132 -0.709916890
v -0.219726577 0.861328125 -0.075195312
vt 0.931640625 0.998535156
vn -0.566227496 -0.652734458 -0.503313243
v -0.219726562 0.865234375 -0.032226562
vt 0.931396484 0.978515625
vn -0.560167491 -0.536498547 0.631174862
v -0.221679702 0.906250000 -0.036132816
vt 0.950683594 0.978515625
vn -0.756445050 0.338824332 0.559454262
vt 0.269287109 0.976806641
vt 0.290283203 0.976806641
v -0.213867202 0.914062500 -0.036132816
vt 0.290771484 0.980468750
vn -0.338247269 0.739424348 0.582100034
v -0.213867202 0.908203125 -0.081054688
vt 0.269531250 0.980468750
vn -0.346274406 0.605979919 -0.716158092
v -0.172851577 0.914062500 -0.083007820
vt 0.269042969 0.999511719
vn -0.339934349 0.268785179 -0.901220977
v -0.172851577 0.919921875 -0.038085949
vt 0.290039062 0.999511719
vn -0.361343145 0.463461995 0.809094727
vt 0.932128906 0.408203125
vt 0.935791016 0.404541016
vt 0.955078125 0.405517578
vt 0.929443359 0.427490234
v -0.151367202 0.947265625 -0.040039077
vt 0.916503906 0.437500000
vn -0.274486572 0.760720074 0.588185608
v -0.168945327 0.935546875 -0.038085949
vt 0.922119141 0.429199219
vn -0.593019724 0.466508895 0.656275272
v -0.124023445 0.951171875 -0.040039081
vt 0.914794922 0.450195312
vn -0.322814554 0.559020519 0.763732255
v 0.176757798 0.919921875 -0.038085993
vt 0.929443359 0.590576172
vn 0.361343324 0.463462055 0.809094608
v 0.223632812 0.865234375 -0.032226622
vt 0.955078125 0.612304688
vn 0.560167730 -0.536498547 0.631174743
v 0.217773423 0.914062500 -0.036132876
vt 0.932128906 0.609619141
vn 0.338247359 0.739424407 0.582099974
v 0.225585923 0.906250000 -0.036132876
vt 0.935791016 0.613281250
vn 0.756445169 0.338824391 0.559454024
v 0.172851548 0.935546875 -0.038085993
vt 0.922119141 0.588623047
vn 0.593019783 0.466508895 0.656275094
v 0.155273423 0.947265625 -0.040039115
vt 0.916503906 0.580566406
vn 0.274486631 0.760720074 0.588185489
v 0.127929673 0.951171875 -0.040039115
vt 0.914794922 0.567626953
vn 0.322814733 0.559020519 0.763732135
v 0.112304673 0.974609375 -0.043945365
vt 0.903564453 0.560546875
vn 0.557949305 0.660108984 0.502940118
v 0.090820298 0.986328125 -0.043945361
vt 0.898193359 0.550537109
vn 0.251656741 0.754970074 0.605548799
v 0.047851551 0.996093750 -0.045898482
vt 0.893554688 0.530273438
vn 0.109909669 0.800770104 0.588801503
v 0.000976550 0.998046875 -0.045898475
vt 0.892822266 0.508544922
vn 0.000000047 0.784681976 0.619898677
v -0.043945324 0.996093750 -0.045898467
vt 0.893554688 0.487548828
vn -0.109909579 0.800770104 0.588801503
v -0.086914077 0.986328125 -0.043945339
vt 0.898193359 0.467529297
vn -0.251656592 0.754970014 0.605548859
v -0.108398452 0.974609375 -0.043945335
vt 0.903564453 0.457519531
vn -0.557949185 0.660108984 0.502940238
vt 0.936523438 0.392578125
vt 0.932861328 0.388916016
vt 0.955078125 0.391601562
vt 0.930175781 0.369873047
v -0.168945327 0.929687500 -0.084960952
vt 0.922851562 0.367919922
vn -0.599168777 0.339003235 -0.725309372
v -0.151367202 0.943359375 -0.084960952
vt 0.916503906 0.359863281
vn -0.267683476 0.661335289 -0.700700521
v -0.124023452 0.945312500 -0.084960960
vt 0.915527344 0.346923828
vn -0.291972995 0.418231368 -0.860136211
v 0.176757798 0.914062500 -0.083007865
vt 0.930175781 0.206787109
vn 0.339934111 0.268785179 -0.901221097
v 0.223632798 0.861328125 -0.075195372
vt 0.955078125 0.184814453
vn 0.566227376 -0.652734458 -0.503313363
v 0.217773423 0.908203125 -0.081054747
vt 0.932861328 0.187500000
vn 0.346274167 0.605979919 -0.716158211
v 0.225585923 0.900390625 -0.081054747
vt 0.936523438 0.183837891
vn 0.678364992 0.189311221 -0.709917068
v 0.172851548 0.929687500 -0.084960997
vt 0.922851562 0.208496094
vn 0.599168539 0.339003295 -0.725309491
v 0.155273423 0.943359375 -0.084960997
vt 0.916503906 0.216796875
vn 0.267683238 0.661335289 -0.700700641
v 0.127929673 0.945312500 -0.084960990
vt 0.915527344 0.229492188
vn 0.291972756 0.418231368 -0.860136330
v -0.086914077 0.980468750 -0.088867210
vt 0.899169922 0.329833984
vn -0.268157601 0.615184784 -0.741376579
v -0.108398452 0.968750000 -0.088867210
vt 0.904541016 0.339843750
vn -0.456071377 0.416754723 -0.786329687
v -0.043945331 0.990234375 -0.090820342
vt 0.894531250 0.309570312
vn -0.102460854 0.606882691 -0.788159430
v 0.002929669 0.994140625 -0.090820350
vt 0.892578125 0.287841797
vn -0.000000128 0.645589232 -0.763684928
v 0.047851544 0.990234375 -0.090820357
vt 0.894531250 0.266845703
vn 0.110249773 0.606374383 -0.787499249
v 0.090820298 0.980468750 -0.088867240
vt 0.899169922 0.246826172
vn 0.268157363 0.615184784 -0.741376698
v 0.112304673 0.968750000 -0.088867240
vt 0.904541016 0.236816406
vn 0.456071138 0.416754782 -0.786329806
vt 0.900878906 0.208007812
vt 0.900878906 0.001220703
vt 0.920898438 0.001220703
vt 0.920898438 0.208007812
vt 0.870117188 0.221435547
vt 0.869384766 0.241455078
vt 0.850830078 0.241943359
vt 0.850830078 0.220703125
vt 0.833984375 0.900390625
vt 0.833740234 0.904052734
vt 0.812500000 0.904052734
vt 0.812988281 0.900390625
vt 0.812255859 0.881347656
vt 0.833251953 0.881347656
vt 0.942138672 0.817138672
vt 0.942138672 0.838134766
vt 0.934814453 0.838134766
vt 0.934814453 0.816162109
vt 0.831787109 0.975341797
vt 0.831787109 0.997314453
vt 0.823730469 0.975830078
vt 0.823730469 0.996826172
vt 0.811035156 0.996582031
vt 0.811035156 0.975585938
vt 0.889160156 0.080566406
vt 0.881835938 0.080566406
vt 0.881835938 0.059570312
vt 0.889160156 0.058593750
vt 0.976562500 0.999511719
vt 0.976562500 0.977539062
vt 0.984619141 0.977783203
vt 0.984619141 0.998779297
vt 0.997314453 0.998779297
vt 0.997314453 0.977783203
vt 0.920410156 0.634521484
vt 0.931640625 0.613037109
vt 0.931640625 0.634277344
vt 0.920410156 0.613281250
vt 0.523681641 0.526367188
vt 0.502441406 0.526367188
vt 0.524169922 0.516357422
vt 0.502929688 0.516357422
vt 0.502685547 0.496337891
vt 0.523681641 0.496337891
vt 0.502685547 0.475341797
vt 0.523925781 0.474365234
vt 0.523681641 0.453369141
vt 0.502685547 0.453369141
vt 0.524169922 0.433349609
vt 0.502929688 0.433349609
vt 0.502441406 0.423339844
vt 0.523681641 0.423339844
vt 0.946533203 0.882812500
vt 0.935302734 0.882568359
vt 0.935302734 0.861328125
vt 0.946533203 0.861572266
v 0.165039092 0.056640655 0.002929670
vt 0.971923828 0.889160156
vn -0.789164960 -0.284099400 0.544523954
v 0.284179747 0.056640655 0.002929655
vt 0.936767578 0.846191406
vn 0.550277829 -0.558138847 0.621027708
v 0.284179747 0.154296905 0.002929650
vt 0.971923828 0.817382812
vn 0.354199052 0.755624533 0.550976098
vt 0.485351562 0.811279297
vt 0.485351562 0.755615234
v 0.165039092 0.056640655 -0.038085956
vt 0.504394531 0.755615234
vn -0.816899598 -0.282772958 -0.502707303
v 0.291992188 0.052734405 -0.057617221
vt 0.513671875 0.814941406
vn 0.575588763 -0.520395339 -0.630782306
vt 0.038330078 0.282714844
vt 0.038330078 0.227050781
v 0.284179688 0.154296905 -0.038085975
vt 0.057373047 0.228515625
vn 0.354980499 0.796734154 -0.489084423
vt 0.057373047 0.284423828
vt 0.010498047 0.949951172
vt 0.029785156 0.949951172
vt 0.029785156 0.995605469
vt 0.001464844 0.997314453
vt 0.895507812 0.365478516
vt 0.933837891 0.392089844
vt 0.895507812 0.437255859
v 0.295898497 0.056640655 0.125976518
vt 0.770263672 0.939208984
vn -0.620950937 -0.212223768 0.754573464
v 0.336914122 0.056640655 0.125976518
vt 0.789550781 0.939208984
vn 0.543813229 -0.212796390 0.811778903
v 0.295898497 0.119140655 0.012695275
vt 0.770263672 0.989013672
vn -0.695940435 0.577314079 -0.427054226
v 0.336914122 0.119140655 0.012695271
vt 0.789550781 0.989013672
vn 0.557175517 0.714126527 -0.423767447
vt 0.835205078 0.888427734
vt 0.853027344 0.881835938
v 0.336914122 0.056640655 0.012695273
vt 0.853027344 0.937988281
vn 0.306734949 -0.699985027 -0.644930005
vt 0.984619141 0.610595703
vt 0.984619141 0.666259766
vt 0.950439453 0.616699219
vt 0.454101562 0.802246094
vt 0.428710938 0.755859375
vt 0.454101562 0.741699219
vt 0.747070312 0.346435547
vt 0.747070312 0.375732422
vt 0.727783203 0.346435547
v 0.282226622 0.052734405 0.014648405
vt 0.889160156 0.950683594
vn -0.574642777 -0.566771030 0.590386629
v 0.364257872 0.054687560 0.014648395
vt 0.850830078 0.950683594
vn 0.648186028 -0.505901158 0.569138765
v 0.360351622 0.072265685 0.014648394
vt 0.852539062 0.942382812
vn 0.670623243 0.362925559 0.646954060
v 0.348632872 0.083984435 0.014648395
vt 0.857910156 0.937011719
vn 0.550908029 0.228233352 0.802751541
v 0.348632872 0.107421935 0.014648394
vt 0.857666016 0.926025391
vn 0.725332081 0.236521363 0.646491408
v 0.338867247 0.121093780 0.014648395
vt 0.862060547 0.919433594
vn 0.505632818 0.308120012 0.805852056
v 0.291992188 0.246093780 -0.012695354
vt 0.882568359 0.860107422
vn -0.462322176 -0.383962572 0.799269080
v 0.317382812 0.246093780 -0.012695358
vt 0.870605469 0.860351562
vn 0.448902518 -0.338645607 0.826925457
vt 0.980468750 0.806640625
vt 0.980468750 0.814941406
v 0.360351562 0.072265685 -0.079101600
vt 0.936767578 0.806640625
vn 0.670623124 0.362925529 -0.646954238
v 0.364257812 0.054687560 -0.079101600
vt 0.936767578 0.814941406
vn 0.648185909 -0.505901217 -0.569138944
vt 0.980468750 0.801025391
v 0.348632812 0.083984435 -0.079101607
vt 0.936767578 0.801269531
vn 0.550907791 0.228233293 -0.802751660
v 0.348632812 0.107421935 -0.079101607
vt 0.936767578 0.790283203
vn 0.725331903 0.236521304 -0.646491647
vt 0.980468750 0.790283203
v 0.338867188 0.121093780 -0.079101607
vt 0.936767578 0.783935547
vn 0.590551078 0.236220479 -0.771653593
vt 0.980468750 0.783691406
v 0.331054688 0.246093780 -0.034179736
vt 0.957519531 0.725341797
vn 0.946261644 -0.323306024 0.007885403
v 0.317382812 0.246093780 -0.057617232
vt 0.946777344 0.725341797
vn 0.470983058 -0.180543572 -0.863469243
vt 0.967529297 0.725341797
vt 0.063476562 0.949462891
vt 0.101806641 0.949462891
vt 0.063476562 0.993164062
v 0.282226562 0.052734405 -0.079101592
vt 0.101806641 0.993164062
vn -0.566806197 -0.582550824 -0.582550764
vt 0.927978516 0.660156250
vt 0.929443359 0.668457031
vt 0.891113281 0.668457031
vt 0.922607422 0.654785156
vt 0.922851562 0.643798828
vt 0.918457031 0.637207031
v 0.305664062 0.169921905 -0.079101600
vt 0.903320312 0.614257812
vn -0.149379700 0.165103674 -0.974898219
v 0.291992188 0.246093780 -0.057617228
vt 0.897949219 0.579345703
vn -0.488977939 -0.220828742 -0.843881071
vt 0.909667969 0.579589844
v 0.290039062 0.250000060 -0.059570353
vt 0.896972656 0.577392578
v 0.319335938 0.250000060 -0.059570357
vt 0.910644531 0.577880859
v 0.319335938 0.271484435 -0.059570357
vt 0.910888672 0.567871094
vn 0.463762462 0.408739895 -0.786038339
v 0.290039062 0.271484435 -0.059570353
vt 0.897216797 0.567626953
vn -0.456170112 0.401114911 -0.794364929
v 0.278320312 0.246093780 -0.034179728
vt 0.946777344 0.631347656
vn -0.922347069 -0.386282146 0.007883446
vt 0.967773438 0.721435547
vt 0.924072266 0.721435547
vt 0.957763672 0.631347656
vt 0.936767578 0.631347656
vt 0.879150391 0.013671875
vt 0.879150391 0.025390625
v 0.290039062 0.250000060 -0.008789104
vt 0.877197266 0.012695312
vt 0.889160156 0.007324219
v 0.319335938 0.250000060 -0.008789108
vt 0.877197266 0.026367188
vt 0.889160156 0.031738281
vt 0.398193359 0.562255859
vt 0.401123047 0.570800781
v 0.274414062 0.250000060 -0.034179728
vt 0.395507812 0.562500000
vt 0.398925781 0.549072266
vt 0.401123047 0.549804688
vt 0.397705078 0.527832031
vt 0.398437500 0.541015625
vt 0.395507812 0.528808594
v 0.334960938 0.250000060 -0.034179736
vt 0.401123047 0.541259766
vt 0.395507812 0.549560547
vt 0.876953125 0.033691406
vt 0.886962891 0.033691406
vt 0.876953125 0.045410156
v 0.334960938 0.271484435 -0.034179736
vt 0.886962891 0.045410156
vt 0.876953125 0.057373047
v 0.319335938 0.271484435 -0.008789109
vt 0.886962891 0.057373047
vn 0.423728317 0.478655994 0.768988132
v 0.274414062 0.271484435 -0.034179728
vt 0.717773438 0.951660156
vt 0.727783203 0.939697266
vt 0.727783203 0.951660156
vt 0.717773438 0.939697266
vt 0.727783203 0.963378906
v 0.290039062 0.271484435 -0.008789105
vt 0.717773438 0.963378906
vn -0.426295072 0.481555641 0.765752435
vt 0.751220703 0.392578125
vt 0.741210938 0.392578125
vt 0.741210938 0.378906250
vt 0.751220703 0.378906250
vt 0.625976562 0.764160156
vt 0.625976562 0.778076172
v 0.331054688 0.273437560 -0.034179736
vt 0.624511719 0.765136719
vn 0.788404346 0.614955425 0.015767958
vt 0.613525391 0.758056641
v 0.317382812 0.273437560 -0.057617232
vt 0.624755859 0.777587891
vn 0.402574331 0.489404231 -0.773574471
v 0.317382812 0.273437560 -0.012695359
vt 0.613769531 0.760009766
vn 0.376415670 0.635201335 0.674411237
vt 0.614501953 0.785156250
vt 0.602050781 0.765136719
v 0.291992188 0.273437560 -0.057617228
vt 0.614746094 0.783935547
vn -0.387367040 0.474326819 -0.790544689
v 0.291992188 0.273437560 -0.012695355
vt 0.603759766 0.766113281
vn -0.369335175 0.620797575 0.691521406
vt 0.602050781 0.779052734
v 0.278320312 0.273437560 -0.034179728
vt 0.603515625 0.778076172
vn -0.781419456 0.623556852 0.023679454
vt 0.756347656 0.462402344
vt 0.766357422 0.462402344
v 0.319335938 0.865234375 -0.014648510
vt 0.756347656 0.738525391
vn 0.118033551 0.055082314 0.991480768
v 0.319335938 0.855468750 -0.094726637
vt 0.793701172 0.734130859
vn 0.197241992 -0.063117512 -0.978320897
vt 0.777343750 0.462402344
vt 0.555908203 0.492187500
vt 0.542236328 0.767333984
vt 0.544189453 0.491455078
v 0.170898438 0.814453125 -0.026367238
vt 0.474365234 0.740478516
vn -0.078494646 0.007849518 0.996883690
v 0.290039062 0.910156250 -0.030273508
vt 0.527587891 0.788085938
vn -0.605829895 0.558622360 0.566490352
v 0.319335938 0.912109375 -0.020507887
vt 0.541259766 0.789306641
vn -0.007872724 0.645569265 0.763661146
v 0.348632812 0.910156310 -0.030273518
vt 0.554931641 0.789550781
vn 0.598110139 0.574500501 0.558760643
v 0.348632812 0.863281310 -0.026367266
vt 0.555908203 0.767578125
vn 0.709961295 0.055219259 0.702072561
vt 0.833984375 0.611572266
vt 0.822265625 0.612304688
vt 0.820312500 0.339843750
v 0.170898423 0.808593750 -0.071289115
vt 0.752441406 0.366210938
vn -0.141208082 -0.054914258 -0.988455713
v 0.290039062 0.902343750 -0.088867255
vt 0.805419922 0.319091797
vn -0.597167850 0.432160795 -0.675742328
v 0.319335938 0.902343750 -0.098632887
vt 0.819091797 0.317871094
vn 0.007896924 0.418544233 -0.908162057
v 0.348632812 0.902343810 -0.088867262
vt 0.832763672 0.317626953
vn 0.599187195 0.425738364 -0.678027749
v 0.348632812 0.855468810 -0.083007887
vt 0.833984375 0.339599609
vn 0.708375931 -0.086579286 -0.700505257
vt 0.298583984 0.836425781
vt 0.299072266 0.847412109
v 0.278320312 0.906250000 -0.059570383
vt 0.003662109 0.843505859
vn -0.866437256 0.496232212 -0.055136826
vt 0.004882812 0.829833984
vt 0.299316406 0.857421875
vt 0.002197266 0.857421875
vt 0.703857422 0.348632812
vt 0.718750000 0.347900391
v 0.291992188 0.912109375 -0.059570383
vt 0.717041016 0.354003906
vn -0.786938310 0.613811791 -0.062954985
vt 0.729980469 0.357421875
v 0.299804688 0.908203125 -0.081054755
vt 0.706054688 0.354248047
vn -0.526499331 0.597222984 -0.605081141
v 0.299804688 0.914062500 -0.040039137
vt 0.724365234 0.360351562
vn -0.512176275 0.717046916 0.472778231
v 0.319335938 0.908203125 -0.088867262
vt 0.699707031 0.361572266
vn 0.007879256 0.512160361 -0.858853698
v 0.319335938 0.914062500 -0.032226637
vt 0.724853516 0.370117188
vn -0.015728490 0.770698488 0.637005866
vt 0.695312500 0.360107422
vt 0.729980469 0.371826172
v 0.338867188 0.908203125 -0.081054762
vt 0.700195312 0.371337891
vn 0.526434124 0.589292109 -0.612863839
v 0.338867188 0.914062500 -0.040039141
vt 0.718505859 0.377685547
vn 0.527477324 0.716424465 0.456622094
vt 0.695068359 0.374511719
vt 0.721191406 0.383300781
v 0.346679688 0.912109435 -0.059570391
vt 0.708740234 0.378173828
vn 0.787303984 0.614097238 -0.055111416
v 0.360351562 0.906250060 -0.059570394
vt 0.706542969 0.384033203
vn 0.866034389 0.496001571 -0.062984459
vt 0.989013672 0.089111328
vt 0.966796875 0.089111328
v 0.360351562 0.859375060 -0.053711016
vt 0.989013672 0.075439453
vn 0.999938011 -0.007873484 0.007873396
vt 0.966796875 0.075195312
vt 0.966796875 0.061523438
vt 0.988769531 0.062500000
vt 0.986816406 0.916748047
vt 0.977783203 0.916503906
v 0.338867188 0.960937500 -0.086914144
vt 0.986816406 0.892089844
v 0.319335938 0.960937500 -0.094726644
vt 0.977783203 0.891845703
v 0.299804688 0.960937500 -0.086914137
vt 0.968505859 0.892089844
vt 0.968505859 0.916748047
vt 0.610839844 0.989013672
vt 0.611816406 0.964111328
vt 0.621093750 0.988525391
v 0.346679688 0.964843810 -0.067382894
vt 0.621093750 0.963623047
vn 0.591984451 -0.797205627 0.118396841
v 0.338867188 0.966796875 -0.047851641
vt 0.630126953 0.964111328
vn 0.506186068 -0.640641570 0.577368319
vt 0.630371094 0.989013672
vt 0.970703125 0.725585938
vt 0.970703125 0.700683594
vt 0.979736328 0.725830078
v 0.319335938 0.966796875 -0.040039137
vt 0.979736328 0.700927734
v 0.299804688 0.966796875 -0.047851637
vt 0.989013672 0.700683594
vn -0.534126520 -0.628384292 0.565545857
vt 0.989013672 0.725585938
vt 0.641357422 0.986328125
vt 0.632080078 0.986816406
v 0.291992188 0.964843750 -0.067382887
vt 0.641357422 0.961669922
vn -0.598276854 -0.787206471 0.149569333
vt 0.632324219 0.961914062
vt 0.651611328 0.986816406
vt 0.650634766 0.962158203
vt 0.578369141 0.763183594
vt 0.568603516 0.763183594
v 0.319335938 0.968750000 -0.034179766
vt 0.567626953 0.760742188
vt 0.561523438 0.770263672
v 0.295898438 0.968750000 -0.043945387
vt 0.579345703 0.760742188
vn -0.598110020 -0.464322329 0.653199255
v 0.342773438 0.968750060 -0.043945394
vt 0.559326172 0.769042969
vn 0.597186267 -0.455747247 0.660047770
vt 0.585205078 0.770263672
v 0.352539062 0.964843810 -0.067382894
vt 0.559326172 0.781005859
vn 0.785552979 -0.612731278 0.086410753
v 0.286132812 0.964843750 -0.067382887
vt 0.587890625 0.769042969
vn -0.778153718 -0.620951116 0.094321810
vt 0.561767578 0.780029297
vt 0.585449219 0.780029297
vt 0.568603516 0.787109375
v 0.295898438 0.962890625 -0.090820387
vt 0.587890625 0.781005859
v 0.342773438 0.962890685 -0.090820394
vt 0.567626953 0.789306641
v 0.319335938 0.960937500 -0.100586019
vt 0.579589844 0.789550781
vt 0.578369141 0.786865234
v 0.286132812 0.994140625 -0.071289137
vt 0.458496094 0.948974609
vn -0.764680982 0.638547897 -0.086716324
vt 0.444580078 0.948242188
vt 0.445556641 0.937255859
v 0.295898438 0.996093750 -0.047851637
vt 0.458496094 0.937988281
vn -0.552209139 0.686317146 0.473322213
vt 0.444580078 0.959228516
v 0.295898438 0.990234375 -0.092773512
vt 0.457519531 0.958984375
vn -0.544456124 0.552346706 -0.631253302
vt 0.994628906 0.052978516
vt 0.981933594 0.052978516
vt 0.981445312 0.042236328
v 0.319335938 0.998046875 -0.038086016
vt 0.995361328 0.042236328
vn -0.007852081 0.730248988 0.683135986
v 0.342773438 0.996093810 -0.047851644
vt 0.994628906 0.031250000
vn 0.567721725 0.662341952 0.488871366
vt 0.981933594 0.031250000
vt 0.992675781 0.301269531
vt 0.979736328 0.301269531
vt 0.993164062 0.290527344
v 0.319335938 0.990234375 -0.102539144
vt 0.979492188 0.290527344
vn -0.007905580 0.569192171 -0.822166502
v 0.342773438 0.990234435 -0.092773519
vt 0.979736328 0.279541016
vn 0.567421794 0.520136774 -0.638349712
vt 0.992675781 0.279541016
vt 0.482666016 0.964599609
vt 0.494384766 0.964599609
v 0.352539062 0.994140685 -0.071289144
vt 0.494384766 0.993164062
vn 0.771749258 0.629999459 -0.086625062
vt 0.502929688 0.972900391
vt 0.502929688 0.984863281
vt 0.474853516 0.972656250
vt 0.475097656 0.984375000
vt 0.483398438 0.992919922
vt 0.977294922 0.948486328
vt 0.990234375 0.947753906
vt 0.977294922 0.959472656
vt 0.990966797 0.958984375
vt 0.990966797 0.969726562
vt 0.978271484 0.969726562
v 0.280273497 0.173828155 0.016601525
vt 0.206542969 0.995361328
v 0.305664122 0.173828155 0.024414022
vt 0.206298828 0.983398438
v 0.305664122 0.208984405 0.024414020
vt 0.222656250 0.983398438
v 0.280273438 0.208984405 0.016601523
vt 0.222900391 0.995361328
vn -0.572870672 0.415919840 0.706278980
v 0.331054688 0.208984405 0.016601518
vt 0.222900391 0.971679688
vn 0.582154155 0.385480464 0.715892076
v 0.331054747 0.173828155 0.016601520
vt 0.206542969 0.971679688
vt 0.349853516 0.937500000
vt 0.361572266 0.941162109
vt 0.337890625 0.941162109
v 0.342773438 0.173828185 -0.004882858
vt 0.332519531 0.951171875
v 0.268554688 0.173828155 -0.004882848
vt 0.367187500 0.951171875
v 0.342773438 0.173828185 -0.065429732
vt 0.332519531 0.979492188
v 0.268554688 0.173828155 -0.065429725
vt 0.367187500 0.979492188
v 0.331054688 0.173828155 -0.086914107
vt 0.337890625 0.989501953
v 0.280273438 0.173828155 -0.086914100
vt 0.361572266 0.989501953
v 0.305664062 0.173828155 -0.094726600
vt 0.349853516 0.993164062
vt 0.378173828 0.414306641
vt 0.394775391 0.414306641
v 0.342773438 0.208984435 -0.004882860
vt 0.378417969 0.424316406
vn 0.904027820 0.361611158 0.227972105
vt 0.394775391 0.424316406
v 0.342773438 0.208984435 -0.065429732
vt 0.378173828 0.452636719
vn 0.895668626 0.377123713 -0.235702440
vt 0.394775391 0.452636719
v 0.331054688 0.208984405 -0.086914107
vt 0.378173828 0.462646484
vn 0.582153976 0.385480374 -0.715892255
vt 0.394531250 0.462646484
v 0.336914062 0.214843780 -0.004882859
vt 0.375488281 0.424316406
vn 0.426787496 0.893092394 0.142262399
v 0.336914062 0.214843780 -0.063476607
vt 0.375488281 0.451660156
vn 0.409842849 0.906383336 -0.102460817
v 0.327148438 0.214843780 0.010742142
vt 0.375488281 0.416992188
vn 0.267030329 0.911044717 0.314153284
vt 0.399902344 0.941406250
vt 0.405273438 0.951416016
vt 0.397949219 0.943847656
vt 0.387939453 0.937744141
v 0.305664062 0.214843780 0.016601520
vt 0.387939453 0.941162109
vn -0.007895579 0.931679010 0.363196880
v 0.286132812 0.214843780 0.010742147
vt 0.378906250 0.943847656
vn -0.212809637 0.930056930 0.299509883
vt 0.402587891 0.951171875
vt 0.376220703 0.941406250
v 0.276367188 0.214843780 -0.004882851
vt 0.374267578 0.951171875
vn -0.354155153 0.928673387 0.110181600
vt 0.402587891 0.978271484
v 0.268554688 0.208984405 -0.004882850
vt 0.370605469 0.951416016
vn -0.883177519 0.417932183 0.212908968
v 0.276367188 0.214843780 -0.063476600
vt 0.374267578 0.978271484
vn -0.338561743 0.936949790 -0.086608797
v 0.268554688 0.208984405 -0.065429725
vt 0.370605469 0.979492188
vn -0.876956820 0.426627576 -0.221214205
v 0.280273438 0.208984405 -0.086914100
vt 0.376220703 0.989501953
vn -0.576054692 0.418231338 -0.702313066
v 0.327148438 0.214843780 -0.081054732
vt 0.397949219 0.986572266
vn 0.267030239 0.911044717 -0.314153403
vt 0.405273438 0.979492188
vt 0.399902344 0.989501953
v 0.305664062 0.208984405 -0.094726600
vt 0.387939453 0.993164062
v 0.286132812 0.214843780 -0.081054725
vt 0.378906250 0.986572266
vn -0.220828801 0.930635333 -0.291809380
v 0.305664062 0.214843780 -0.086914100
vt 0.387939453 0.989257812
vn -0.007895674 0.931679010 -0.363196939
vt 0.808593750 0.974609375
vt 0.808593750 0.984619141
vt 0.791992188 0.984619141
vt 0.792236328 0.974609375
vt 0.808593750 0.946289062
vt 0.792236328 0.946289062
vt 0.808593750 0.936279297
vt 0.791992188 0.936279297
vt 0.974365234 0.846435547
vt 0.990722656 0.846435547
vt 0.974609375 0.858154297
vt 0.990966797 0.858154297
vt 0.974365234 0.870117188
vt 0.990722656 0.870117188
v 0.237304702 0.375000030 -0.077148475
vt 0.925292969 0.696044922
v 0.237304702 0.369140685 -0.041992225
vt 0.908935547 0.696044922
v 0.184570327 0.369140685 -0.041992217
vt 0.908935547 0.671386719
v 0.184570327 0.375000030 -0.077148467
vt 0.925292969 0.671386719
vt 0.904052734 0.893310547
vt 0.887939453 0.889160156
v 0.237304673 0.822265625 -0.083007872
vt 0.904052734 0.681152344
v 0.237304673 0.808593750 -0.114257872
vt 0.888916016 0.686279297
vt 0.849609375 0.218505859
vt 0.849609375 0.006347656
v 0.184570298 0.822265625 -0.083007865
vt 0.874267578 0.006347656
vn -0.559020460 0.716491044 0.417297006
vt 0.874267578 0.218505859
vt 0.460449219 0.887939453
vt 0.464843750 0.904052734
v 0.184570298 0.808593750 -0.114257865
vt 0.257568359 0.888916016
vt 0.252441406 0.904052734
vt 0.456298828 0.909179688
vt 0.456298828 0.933837891
vt 0.253173828 0.909179688
vt 0.253173828 0.933837891
vt 0.827636719 0.961425781
vt 0.812500000 0.961425781
vt 0.827636719 0.936767578
vt 0.812500000 0.936767578
v 0.299804688 0.119140655 -0.077148475
vt 0.958007812 0.315917969
vn -0.692763031 0.582550764 0.425104678
v 0.338867188 0.119140655 -0.077148482
vt 0.976074219 0.315917969
vn 0.557175577 0.714126527 0.423767269
v 0.299804688 0.056640655 -0.190429732
vt 0.958007812 0.371337891
vn -0.620951116 -0.212223843 -0.754573345
v 0.338867188 0.056640655 -0.190429732
vt 0.976074219 0.371337891
vn 0.543812990 -0.212796435 -0.811779022
vt 0.476318359 0.658447266
vt 0.494384766 0.658447266
v 0.338867188 0.056640655 -0.077148475
vt 0.476318359 0.687500000
vn 0.290762395 -0.707259595 0.644392073
vt 0.456298828 0.760009766
vt 0.481689453 0.746093750
vt 0.481689453 0.806396484
vt 0.057373047 0.398925781
vt 0.031738281 0.384765625
vt 0.057373047 0.338623047
vt 0.844726562 0.976074219
vt 0.827392578 0.970214844
vt 0.844726562 0.920410156
v 0.274414062 0.490234405 -0.092773490
vt 0.880615234 0.835693359
vn -0.591634393 0.481195837 -0.646853387
v 0.274414062 0.453125030 -0.092773490
vt 0.878906250 0.853027344
v 0.274414062 0.445312530 -0.065429740
vt 0.865722656 0.855224609
vn -0.567140043 -0.685294390 0.456863016
v 0.274414062 0.500000060 -0.059570365
vt 0.865722656 0.829589844
vn -0.559714794 0.638547957 0.528181732
vt 0.853027344 0.861572266
vt 0.835937500 0.861572266
v 0.333007812 0.490234405 -0.092773497
vt 0.835937500 0.834228516
vn 0.591634214 0.481195956 -0.646853566
v 0.333007812 0.453125030 -0.092773497
vt 0.853027344 0.834228516
vt 0.813964844 0.672607422
vt 0.813964844 0.645263672
vt 0.829833984 0.645263672
v 0.333007812 0.500000060 -0.059570372
vt 0.829833984 0.672607422
vn 0.559714913 0.638547957 0.528181612
vt 0.825439453 0.707031250
vt 0.825439453 0.734130859
vt 0.812988281 0.707031250
v 0.333007812 0.445312530 -0.065429747
vt 0.812988281 0.734375000
vn 0.567140281 -0.685294330 0.456862897
vt 0.558105469 0.961669922
vt 0.558105469 0.989013672
vt 0.532958984 0.989013672
vt 0.532958984 0.961669922
vt 0.277832031 0.867675781
vt 0.292968750 0.861328125
vt 0.279785156 0.884765625
vt 0.292968750 0.886962891
v 0.264648438 0.890625000 -0.047851630
vt 0.595947266 0.769287109
vn -0.117811024 0.149227485 0.981759489
v 0.221679673 0.890625000 -0.047851626
vt 0.595947266 0.789550781
vn -0.598573625 0.094511651 0.795473039
v 0.223632798 0.878906250 -0.055664122
vt 0.590820312 0.788574219
vn -0.494212598 -0.855066359 0.156893015
v 0.264648438 0.878906250 -0.055664126
vt 0.590820312 0.769287109
vn -0.133395836 -0.973005533 0.188323706
v 0.282226562 0.890625000 -0.043945383
vt 0.595947266 0.761230469
vn 0.504062116 0.094511688 0.858480573
v 0.282226562 0.875000000 -0.055664130
vt 0.588867188 0.761230469
vn 0.495909363 -0.858001828 0.133816779
v 0.282226562 0.904296875 -0.059570383
vt 0.602783203 0.761230469
vn 0.495740324 0.865578473 -0.070820153
vt 0.483154297 0.698242188
vt 0.476806641 0.697509766
v 0.221679673 0.888671875 -0.069335997
vt 0.483886719 0.690429688
vn -0.583111286 -0.118198268 -0.803747714
v 0.221679673 0.900390625 -0.059570376
vt 0.476806641 0.690429688
vn -0.576773405 0.813803494 -0.071109004
vt 0.052246094 0.311279297
vt 0.057373047 0.311279297
vt 0.057373047 0.331298828
v 0.264648438 0.900390625 -0.059570380
vt 0.052246094 0.331298828
vn -0.117687844 0.988577425 -0.094150260
vt 0.052490234 0.339599609
vt 0.422363281 0.761718750
vt 0.428710938 0.760986328
v 0.264648438 0.888671875 -0.069336005
vt 0.428710938 0.781005859
vn -0.126187950 -0.110414401 -0.985842407
vt 0.422363281 0.781005859
vt 0.512939453 0.781250000
vt 0.512939453 0.761230469
vt 0.518066406 0.761230469
vt 0.518066406 0.781250000
vt 0.520019531 0.789550781
v 0.282226562 0.886718750 -0.073242255
vt 0.512207031 0.789550781
vn 0.488249451 -0.157499880 -0.858374298
vt 0.751953125 0.356445312
vt 0.751953125 0.346191406
vt 0.761718750 0.346679688
vt 0.761962891 0.355712891
vt 0.640136719 0.761474609
vt 0.647216797 0.760498047
vt 0.640380859 0.769287109
vt 0.647216797 0.770263672
f 1/1/1 2/2/2 3/3/3
f 2/2/2 1/1/1 4/4/4
f 4/4/4 1/1/1 5/5/5
f 3/3/3 2/2/2 6/6/6
f 3/3/3 6/6/6 7/7/7
f 7/7/7 6/6/6 8/8/8
f 7/7/7 8/8/8 9/9/9
f 9/9/9 8/8/8 10/10/10
f 2/11/2 4/12/4 6/13/6
f 6/13/6 4/12/4 11/14/11
f 6/13/6 11/14/11 12/15/11
f 6/13/6 12/15/11 13/16/12
f 13/16/12 12/15/11 14/17/13
f 13/16/12 14/17/13 15/18/14
f 6/13/6 13/16/12 16/19/15
f 6/13/6 16/19/15 8/20/8
f 17/21/16 10/22/10 8/20/8
f 17/21/16 8/20/8 18/23/17
f 18/23/17 8/20/8 16/19/15
f 18/23/17 16/19/15 19/24/17
f 19/24/17 16/19/15 20/25/18
f 20/25/18 16/19/15 21/26/19
f 4/27/4 5/28/5 22/29/20
f 4/27/4 22/29/20 11/30/11
f 11/30/11 22/29/20 23/31/20
f 11/30/11 23/31/20 12/32/11
f 12/32/11 23/31/20 14/33/13
f 14/33/13 23/31/20 24/34/21
f 14/35/13 24/36/21 15/37/14
f 15/37/14 24/36/21 25/38/22
f 15/37/14 25/38/22 26/39/23
f 15/37/14 26/39/23 13/40/12
f 13/40/12 26/39/23 16/41/15
f 16/41/15 26/39/23 27/42/24
f 16/41/15 27/42/24 21/43/19
f 21/43/19 27/42/24 28/44/25
f 9/45/9 10/46/10 29/47/26
f 29/47/26 10/46/10 17/48/16
f 29/47/26 17/48/16 30/49/27
f 30/49/27 17/48/16 18/50/17
f 30/49/27 18/50/17 19/51/17
f 30/49/27 19/51/17 31/52/27
f 31/52/27 19/51/17 20/53/18
f 31/52/27 20/53/18 32/54/28
f 32/54/28 20/53/18 21/55/19
f 32/54/28 21/55/19 28/56/25
f 33/57/29 34/58/30 35/59/31
f 33/57/29 35/59/31 36/60/32
f 35/61/31 34/62/30 37/63/33
f 37/64/33 34/65/30 33/66/29
f 33/67/29 36/68/32 37/69/33
f 37/70/33 36/71/32 35/72/31
f 38/73/34 39/74/35 40/75/36
f 39/74/35 38/73/34 41/76/37
f 41/76/37 38/73/34 42/77/38
f 42/77/38 38/73/34 43/78/39
f 43/78/39 38/73/34 44/79/40
f 43/78/39 44/79/40 45/80/41
f 40/81/36 39/82/35 46/83/42
f 40/81/36 46/83/42 47/84/43
f 46/83/42 39/82/35 41/85/37
f 46/83/42 41/85/37 48/86/44
f 48/86/44 41/85/37 49/87/45
f 49/87/45 41/85/37 42/88/38
f 49/87/45 42/88/38 50/89/46
f 50/89/46 42/88/38 43/90/39
f 50/89/46 43/90/39 51/91/47
f 51/91/47 43/90/39 45/92/41
f 50/89/46 51/91/47 52/93/48
f 40/94/36 47/95/43 53/96/49
f 40/94/36 53/96/49 38/97/34
f 53/98/49 47/99/43 46/100/42
f 53/98/49 46/100/42 48/101/44
f 53/98/49 48/101/44 49/102/45
f 53/98/49 49/102/45 50/103/46
f 53/98/49 50/103/46 54/104/50
f 53/98/49 54/104/50 55/105/51
f 54/104/50 50/103/46 52/106/48
f 54/104/50 52/106/48 55/105/51
f 55/105/51 52/106/48 56/107/52
f 56/107/52 52/106/48 57/108/53
f 56/107/52 57/108/53 58/109/54
f 56/107/52 58/109/54 59/110/55
f 60/111/56 38/112/34 53/113/49
f 38/112/34 60/111/56 44/114/40
f 60/111/56 53/113/49 55/115/51
f 44/116/40 60/117/56 61/118/57
f 44/116/40 61/118/57 45/119/41
f 45/119/41 61/118/57 62/120/58
f 45/119/41 62/120/58 51/121/47
f 56/122/52 60/123/56 55/124/51
f 60/123/56 56/122/52 63/125/59
f 60/123/56 63/125/59 61/126/57
f 61/127/57 63/128/59 64/129/60
f 61/127/57 64/129/60 65/130/61
f 64/129/60 63/128/59 56/131/52
f 64/129/60 56/131/52 59/132/55
f 57/133/53 52/134/48 51/135/47
f 57/133/53 51/135/47 66/136/62
f 66/136/62 51/135/47 62/137/58
f 57/138/53 66/139/62 58/140/54
f 58/140/54 66/139/62 67/141/63
f 67/141/63 66/139/62 62/142/58
f 67/141/63 62/142/58 68/143/64
f 65/144/61 62/145/58 61/146/57
f 62/145/58 65/144/61 68/147/64
f 67/148/63 68/149/64 69/150/65
f 67/148/63 69/150/65 58/151/54
f 69/150/65 68/149/64 70/152/66
f 58/151/54 69/150/65 71/153/67
f 70/152/66 68/149/64 65/154/61
f 58/151/54 71/153/67 59/155/55
f 70/152/66 65/154/61 72/156/68
f 59/155/55 71/153/67 73/157/69
f 72/156/68 65/154/61 64/158/60
f 59/155/55 73/157/69 64/158/60
f 72/156/68 64/158/60 74/159/70
f 74/159/70 64/158/60 73/157/69
f 69/160/65 70/161/66 75/162/71
f 69/160/65 75/162/71 76/163/72
f 69/160/65 76/163/72 71/164/67
f 75/165/71 70/166/66 72/167/68
f 75/165/71 72/167/68 77/168/73
f 75/165/71 72/167/68 78/169/74
f 75/165/71 78/169/74 79/170/75
f 75/165/71 79/170/75 80/171/76
f 75/165/71 80/171/76 81/172/77
f 71/173/67 76/174/72 73/175/69
f 73/175/69 76/174/72 82/176/78
f 73/175/69 76/174/72 83/177/79
f 83/177/79 76/174/72 84/178/80
f 84/178/80 76/174/72 85/179/81
f 85/179/81 76/174/72 86/180/82
f 72/181/68 74/182/70 87/183/83
f 72/181/68 87/183/83 78/184/74
f 87/183/83 74/182/70 73/185/69
f 87/183/83 73/185/69 83/186/79
f 78/187/74 87/188/83 88/189/84
f 88/189/84 87/188/83 83/190/79
f 78/187/74 88/189/84 89/191/85
f 88/189/84 83/190/79 90/192/86
f 78/187/74 89/191/85 91/193/87
f 90/192/86 83/190/79 92/194/88
f 78/187/74 91/193/87 79/195/75
f 92/194/88 83/190/79 84/196/80
f 79/195/75 91/193/87 93/197/89
f 92/194/88 84/196/80 94/198/90
f 79/195/75 93/197/89 80/199/76
f 94/198/90 84/196/80 85/200/81
f 80/199/76 93/197/89 95/201/91
f 94/198/90 85/200/81 96/202/92
f 95/201/91 93/197/89 96/202/92
f 95/201/91 96/202/92 85/200/81
f 89/203/85 88/204/84 97/205/93
f 89/203/85 97/205/93 98/206/94
f 97/205/93 88/204/84 90/207/86
f 97/205/93 90/207/86 99/208/95
f 99/209/95 90/210/86 92/211/88
f 99/209/95 92/211/88 100/212/96
f 100/212/96 92/211/88 101/213/97
f 101/213/97 92/211/88 94/214/90
f 89/215/85 98/216/94 91/217/87
f 91/217/87 98/216/94 102/218/98
f 91/217/87 102/218/98 103/219/99
f 91/217/87 103/219/99 93/220/89
f 75/221/71 81/222/77 76/223/72
f 76/223/72 81/222/77 104/224/100
f 76/223/72 104/224/100 86/225/82
f 81/226/77 80/227/76 104/228/100
f 104/228/100 80/227/76 95/229/91
f 104/228/100 95/229/91 85/230/81
f 104/228/100 85/230/81 86/231/82
f 93/232/89 103/233/99 96/234/92
f 96/234/92 103/233/99 105/235/101
f 96/234/92 105/235/101 101/236/97
f 96/234/92 101/236/97 94/237/90
f 106/238/102 102/239/98 98/240/94
f 102/239/98 106/238/102 103/241/99
f 106/238/102 98/240/94 107/242/103
f 103/241/99 106/238/102 108/243/104
f 107/242/103 98/240/94 97/244/93
f 103/241/99 108/243/104 109/245/105
f 107/242/103 97/244/93 110/246/106
f 103/241/99 109/245/105 105/247/101
f 110/246/106 97/244/93 99/248/95
f 105/247/101 109/245/105 101/249/97
f 110/246/106 99/248/95 111/250/107
f 101/249/97 109/245/105 112/251/108
f 111/250/107 99/248/95 113/252/109
f 101/249/97 112/251/108 113/252/109
f 113/252/109 99/248/95 100/253/96
f 113/252/109 100/253/96 101/249/97
f 112/254/108 109/255/105 114/256/110
f 112/254/108 114/256/110 115/257/111
f 114/256/110 109/255/105 108/258/104
f 114/256/110 108/258/104 116/259/112
f 113/260/109 112/261/108 115/262/111
f 113/260/109 115/262/111 117/263/113
f 113/260/109 117/263/113 118/264/114
f 113/260/109 118/264/114 111/265/107
f 117/266/113 115/267/111 114/268/110
f 117/266/113 114/268/110 118/269/114
f 118/269/114 114/268/110 119/270/115
f 119/270/115 114/268/110 120/271/116
f 120/271/116 114/268/110 121/272/117
f 121/272/117 114/268/110 116/273/112
f 111/274/107 118/275/114 119/276/115
f 111/274/107 119/276/115 110/277/106
f 110/277/106 119/276/115 107/278/103
f 107/278/103 119/276/115 120/279/116
f 107/280/103 120/281/116 106/282/102
f 106/282/102 120/281/116 121/283/117
f 106/282/102 121/283/117 116/284/112
f 106/282/102 116/284/112 108/285/104
f 122/286/118 123/287/119 124/288/120
f 122/289/118 124/290/120 125/291/121
f 125/291/121 124/290/120 126/292/122
f 123/293/119 122/294/118 127/295/123
f 127/295/123 122/294/118 125/296/121
f 123/297/119 127/298/123 124/299/120
f 124/299/120 127/298/123 126/300/122
f 125/301/121 126/302/122 127/303/123
f 128/304/124 129/305/125 130/306/126
f 129/305/125 128/304/124 131/307/127
f 131/307/127 128/304/124 132/308/128
f 131/307/127 132/308/128 133/309/129
f 128/310/124 130/311/126 132/312/128
f 132/312/128 130/311/126 134/313/130
f 132/312/128 134/313/130 135/314/131
f 135/314/131 134/313/130 136/315/132
f 135/314/131 136/315/132 137/316/133
f 137/316/133 136/315/132 138/317/134
f 137/316/133 138/317/134 139/318/135
f 139/318/135 138/317/134 140/319/136
f 130/320/126 129/321/125 141/322/137
f 130/320/126 141/322/137 134/323/130
f 134/323/130 141/322/137 142/324/138
f 134/323/130 142/324/138 136/325/132
f 136/325/132 142/324/138 143/326/139
f 136/325/132 143/326/139 138/327/134
f 142/324/138 141/322/137 144/328/140
f 144/328/140 141/322/137 145/329/141
f 142/324/138 144/328/140 146/330/142
f 141/331/137 129/332/125 145/333/141
f 145/333/141 129/332/125 131/334/127
f 145/333/141 131/334/127 147/335/143
f 147/335/143 131/334/127 148/336/144
f 147/335/143 148/336/144 145/333/141
f 148/336/144 131/334/127 133/337/129
f 145/333/141 148/336/144 144/338/140
f 148/336/144 133/337/129 149/339/145
f 148/336/144 149/339/145 144/338/140
f 149/339/145 133/337/129 150/340/146
f 144/338/140 149/339/145 146/341/142
f 149/339/145 150/340/146 151/342/147
f 149/339/145 151/342/147 146/341/142
f 151/342/147 150/340/146 152/343/148
f 151/342/147 152/343/148 153/344/149
f 151/342/147 153/344/149 154/345/150
f 151/342/147 154/345/150 146/341/142
f 154/345/150 153/344/149 155/346/151
f 154/345/150 155/346/151 156/347/152
f 146/341/142 154/345/150 157/348/153
f 157/348/153 154/345/150 156/347/152
f 157/348/153 156/347/152 155/346/151
f 146/341/142 157/348/153 142/349/138
f 157/348/153 155/346/151 143/350/139
f 157/348/153 143/350/139 142/349/138
f 133/351/129 132/352/128 135/353/131
f 133/351/129 135/353/131 150/354/146
f 150/354/146 135/353/131 137/355/133
f 150/354/146 137/355/133 152/356/148
f 152/356/148 137/355/133 139/357/135
f 152/356/148 139/357/135 153/358/149
f 155/359/151 153/360/149 140/361/136
f 140/361/136 153/360/149 139/362/135
f 155/359/151 140/361/136 138/363/134
f 155/359/151 138/363/134 143/364/139
f 158/365/154 159/366/155 160/367/156
f 158/365/154 160/367/156 161/368/157
f 161/369/157 160/370/156 162/371/158
f 161/369/157 162/371/158 163/372/159
f 162/373/158 160/374/156 159/375/155
f 162/373/158 159/375/155 164/376/160
f 161/377/157 163/378/159 158/379/154
f 158/379/154 163/378/159 165/380/161
f 163/381/159 162/382/158 164/383/160
f 163/381/159 164/383/160 165/384/161
f 158/385/154 165/386/161 166/387/162
f 166/387/162 165/386/161 164/388/160
f 158/385/154 166/387/162 167/389/163
f 166/387/162 164/388/160 168/390/164
f 158/385/154 167/389/163 159/391/155
f 168/390/164 164/388/160 159/391/155
f 159/391/155 167/389/163 169/392/165
f 159/391/155 169/392/165 168/390/164
f 169/393/165 167/394/163 170/395/166
f 170/395/166 167/394/163 171/396/167
f 169/397/165 170/398/166 168/399/164
f 168/399/164 170/398/166 172/400/168
f 167/401/163 166/402/162 171/403/167
f 171/403/167 166/402/162 173/404/169
f 166/405/162 168/406/164 173/407/169
f 173/407/169 168/406/164 172/408/168
f 170/409/166 171/410/167 174/411/170
f 170/409/166 174/411/170 172/412/168
f 174/411/170 171/410/167 175/413/171
f 172/412/168 174/411/170 176/414/172
f 175/413/171 171/410/167 173/415/169
f 172/412/168 176/414/172 173/415/169
f 175/413/171 173/415/169 177/416/173
f 177/416/173 173/415/169 176/414/172
f 174/417/170 175/418/171 178/419/174
f 178/419/174 175/418/171 179/420/175
f 177/421/173 176/422/172 180/423/176
f 180/423/176 176/422/172 181/424/177
f 177/425/173 180/426/176 175/427/171
f 175/427/171 180/426/176 179/428/175
f 176/429/172 174/430/170 181/431/177
f 181/431/177 174/430/170 178/432/174
f 178/433/174 179/434/175 181/435/177
f 181/435/177 179/434/175 180/436/176
f 182/437/178 183/438/179 184/439/180
f 183/438/179 182/437/178 185/440/181
f 184/441/180 183/442/179 186/443/182
f 186/443/182 183/442/179 187/444/183
f 184/441/180 186/443/182 188/445/184
f 188/445/184 186/443/182 189/446/185
f 182/447/178 184/448/180 188/449/184
f 182/447/178 188/449/184 190/450/186
f 183/451/179 185/452/181 191/453/187
f 183/451/179 191/453/187 187/454/183
f 191/455/187 185/456/181 192/457/188
f 192/457/188 185/456/181 182/458/178
f 192/457/188 182/458/178 190/459/186
f 192/457/188 190/459/186 193/460/189
f 191/461/187 192/462/188 187/463/183
f 187/463/183 192/462/188 186/464/182
f 186/465/182 192/466/188 193/467/189
f 186/465/182 193/467/189 189/468/185
f 193/469/189 190/470/186 194/471/190
f 194/471/190 190/470/186 188/472/184
f 193/469/189 194/471/190 195/473/191
f 194/471/190 188/472/184 196/474/192
f 193/469/189 195/473/191 189/475/185
f 196/474/192 188/472/184 189/475/185
f 189/475/185 195/473/191 197/476/193
f 189/475/185 197/476/193 196/474/192
f 195/477/191 194/478/190 198/479/194
f 195/477/191 198/479/194 199/480/195
f 198/481/194 194/482/190 196/483/192
f 198/481/194 196/483/192 200/484/196
f 197/485/193 195/486/191 199/487/195
f 197/485/193 199/487/195 201/488/197
f 196/489/192 197/490/193 200/491/196
f 200/491/196 197/490/193 201/492/197
f 201/493/197 199/494/195 202/495/198
f 201/493/197 202/495/198 200/496/196
f 202/495/198 199/494/195 203/497/199
f 200/496/196 202/495/198 204/498/200
f 203/497/199 199/494/195 198/499/194
f 200/496/196 204/498/200 205/500/201
f 203/497/199 198/499/194 205/500/201
f 205/500/201 198/499/194 200/496/196
f 204/501/200 202/502/198 206/503/202
f 204/501/200 206/503/202 207/504/203
f 207/504/203 206/503/202 208/505/204
f 207/504/203 208/505/204 209/506/205
f 205/507/201 204/508/200 207/509/203
f 205/507/201 207/509/203 210/510/206
f 210/510/206 207/509/203 211/511/207
f 211/511/207 207/509/203 209/512/205
f 203/513/199 205/514/201 210/515/206
f 203/513/199 210/515/206 212/516/208
f 212/516/208 210/515/206 213/517/209
f 213/517/209 210/515/206 211/518/207
f 212/519/208 202/520/198 203/521/199
f 202/520/198 212/519/208 206/522/202
f 206/522/202 212/519/208 213/523/209
f 206/522/202 213/523/209 208/524/204
f 211/525/207 209/526/205 213/527/209
f 213/527/209 209/526/205 208/528/204
f 214/529/210 215/530/211 216/531/212
f 216/532/212 215/533/211 217/534/213
f 217/534/213 215/533/211 218/535/214
f 216/536/212 217/537/213 214/538/210
f 217/539/213 218/540/214 214/541/210
f 214/542/210 218/543/214 215/544/211
f 219/545/215 220/546/216 221/547/217
f 221/547/217 220/546/216 222/548/218
f 220/549/216 219/550/215 223/551/219
f 220/549/216 223/551/219 224/552/220
f 223/553/219 219/554/215 221/555/217
f 223/553/219 221/555/217 225/556/221
f 221/557/217 222/558/218 226/559/222
f 221/557/217 226/559/222 225/560/221
f 226/561/222 222/562/218 224/563/220
f 224/563/220 222/562/218 220/564/216
f 226/565/222 224/566/220 225/567/221
f 225/567/221 224/566/220 223/568/219
f 227/569/223 228/570/224 229/571/225
f 228/570/224 227/569/223 230/572/226
f 227/573/223 229/574/225 231/575/227
f 227/573/223 231/575/227 232/576/228
f 231/577/227 229/578/225 228/579/224
f 231/577/227 228/579/224 233/580/229
f 227/581/223 232/582/228 230/583/226
f 230/583/226 232/582/228 234/584/230
f 234/585/230 232/586/228 231/587/227
f 234/585/230 231/587/227 233/588/229
f 230/589/226 234/590/230 228/591/224
f 228/591/224 234/590/230 233/592/229
f 235/593/231 236/594/232 237/595/233
f 235/593/231 237/595/233 238/596/234
f 235/593/231 238/596/234 239/597/235
f 238/596/234 237/595/233 240/598/236
f 238/596/234 240/598/236 241/599/237
f 236/600/232 235/601/231 242/602/238
f 242/602/238 235/601/231 239/603/235
f 236/604/232 242/605/238 237/606/233
f 237/606/233 242/605/238 243/607/239
f 243/608/239 242/609/238 239/610/235
f 243/608/239 239/610/235 244/611/240
f 243/608/239 244/611/240 245/612/241
f 243/608/239 245/612/241 246/613/242
f 239/614/235 238/615/234 244/616/240
f 244/616/240 238/615/234 245/617/241
f 245/617/241 238/615/234 241/618/237
f 246/619/242 245/620/241 241/621/237
f 246/619/242 241/621/237 240/622/236
f 240/623/236 237/624/233 243/625/239
f 240/623/236 243/625/239 246/626/242
f 247/627/243 248/628/244 249/629/245
f 247/627/243 249/629/245 250/630/246
f 247/631/243 250/632/246 251/633/247
f 247/631/243 251/633/247 252/634/248
f 252/634/248 251/633/247 253/635/249
f 253/635/249 251/633/247 254/636/250
f 251/637/247 250/638/246 249/639/245
f 251/637/247 249/639/245 254/640/250
f 255/641/251 256/642/252 254/640/250
f 255/641/251 254/640/250 257/643/253
f 254/640/250 249/639/245 258/644/254
f 258/644/254 249/639/245 259/645/255
f 258/644/254 259/645/255 260/646/256
f 260/646/256 259/645/255 261/647/257
f 262/648/258 263/649/259 258/644/254
f 258/644/254 263/649/259 264/650/260
f 258/644/254 264/650/260 254/640/250
f 254/640/250 264/650/260 257/643/253
f 265/651/261 266/652/262 264/650/260
f 264/650/260 266/652/262 267/653/263
f 264/650/260 267/653/263 268/654/264
f 264/650/260 268/654/264 257/643/253
f 257/643/253 268/654/264 269/655/265
f 257/643/253 269/655/265 270/656/266
f 257/643/253 270/656/266 271/657/267
f 247/658/243 252/659/248 248/660/244
f 248/660/244 252/659/248 253/661/249
f 272/662/268 273/663/269 253/661/249
f 253/661/249 273/663/269 274/664/270
f 248/660/244 253/661/249 275/665/271
f 248/660/244 275/665/271 276/666/272
f 276/666/272 275/665/271 277/667/273
f 276/666/272 277/667/273 278/668/274
f 279/669/275 275/665/271 280/670/276
f 280/670/276 275/665/271 281/671/277
f 281/671/277 275/665/271 253/661/249
f 281/671/277 253/661/249 274/664/270
f 282/672/278 274/664/270 283/673/279
f 274/664/270 282/672/278 284/674/280
f 274/664/270 284/674/280 285/675/281
f 274/664/270 285/675/281 281/671/277
f 281/671/277 285/675/281 286/676/282
f 281/671/277 286/676/282 287/677/283
f 281/671/277 287/677/283 288/678/284
f 259/679/255 249/680/245 248/681/244
f 259/679/255 248/681/244 276/682/272
f 259/683/255 276/684/272 278/685/274
f 259/683/255 278/685/274 261/686/257
f 260/687/256 261/688/257 278/689/274
f 260/687/256 278/689/274 277/690/273
f 260/687/256 277/690/273 275/691/271
f 260/687/256 275/691/271 258/692/254
f 258/693/254 275/694/271 279/695/275
f 258/693/254 279/695/275 262/696/258
f 262/697/258 279/698/275 263/699/259
f 263/699/259 279/698/275 280/700/276
f 263/699/259 280/700/276 281/701/277
f 263/699/259 281/701/277 264/702/260
f 272/703/268 253/704/249 254/705/250
f 272/703/268 254/705/250 256/706/252
f 272/707/268 256/708/252 255/709/251
f 272/707/268 255/709/251 273/710/269
f 273/710/269 255/709/251 274/711/270
f 274/711/270 255/709/251 257/712/253
f 288/713/284 264/714/260 281/715/277
f 264/714/260 288/713/284 265/716/261
f 265/717/261 288/718/284 266/719/262
f 266/719/262 288/718/284 287/720/283
f 266/719/262 287/720/283 286/721/282
f 266/719/262 286/721/282 267/722/263
f 267/722/263 286/721/282 285/723/281
f 267/722/263 285/723/281 268/724/264
f 268/724/264 285/723/281 269/725/265
f 269/725/265 285/723/281 284/726/280
f 269/725/265 284/726/280 270/727/266
f 270/727/266 284/726/280 282/728/278
f 270/727/266 282/728/278 283/729/279
f 270/727/266 283/729/279 271/730/267
f 283/731/279 274/732/270 257/733/253
f 283/731/279 257/733/253 271/734/267
f 289/735/285 290/736/286 291/737/287
f 290/738/286 289/739/285 292/740/288
f 290/738/286 292/740/288 293/741/289
f 289/742/285 291/743/287 294/744/290
f 289/742/285 294/744/290 292/745/288
f 294/746/290 291/747/287 290/748/286
f 294/746/290 290/748/286 293/749/289
f 294/750/290 293/751/289 292/752/288
f 295/753/291 296/754/292 297/755/293
f 297/755/293 296/754/292 298/756/294
f 296/757/292 295/758/291 299/759/295
f 299/760/295 295/761/291 297/762/293
f 296/763/292 299/764/295 298/765/294
f 298/766/294 299/767/295 297/768/293
f 300/769/296 301/770/297 302/771/298
f 300/769/296 302/771/298 303/772/299
f 300/769/296 303/772/299 304/773/300
f 300/769/296 304/773/300 305/774/301
f 300/769/296 305/774/301 306/775/302
f 306/775/302 305/774/301 307/776/303
f 302/777/298 301/778/297 308/779/304
f 308/779/304 301/778/297 309/780/305
f 302/777/298 308/779/304 303/781/299
f 303/781/299 308/779/304 310/782/306
f 303/781/299 310/782/306 311/783/307
f 303/781/299 311/783/307 304/784/300
f 304/784/300 311/783/307 312/785/308
f 304/784/300 312/785/308 305/786/301
f 305/786/301 312/785/308 313/787/309
f 313/787/309 312/785/308 314/788/310
f 305/786/301 313/787/309 307/789/303
f 301/790/297 300/791/296 309/792/305
f 309/792/305 300/791/296 315/793/311
f 308/794/304 309/795/305 315/796/311
f 308/794/304 315/796/311 310/797/306
f 310/797/306 315/796/311 311/798/307
f 311/798/307 315/796/311 312/799/308
f 312/799/308 315/796/311 316/800/312
f 316/800/312 315/796/311 317/801/313
f 312/799/308 316/800/312 314/802/310
f 314/802/310 316/800/312 317/801/313
f 314/802/310 317/801/313 318/803/53
f 314/802/310 318/803/53 319/804/52
f 319/804/52 318/803/53 320/805/314
f 320/805/314 318/803/53 321/806/315
f 322/807/316 315/808/311 300/809/296
f 315/808/311 322/807/316 317/810/313
f 322/807/316 300/809/296 306/811/302
f 306/812/302 307/813/303 323/814/58
f 306/812/302 323/814/58 322/815/316
f 323/814/58 307/813/303 324/816/57
f 324/816/57 307/813/303 313/817/309
f 322/818/316 323/819/58 325/820/62
f 322/818/316 325/820/62 318/821/53
f 322/818/316 318/821/53 317/822/313
f 319/823/52 313/824/309 314/825/310
f 313/824/309 319/823/52 326/826/59
f 313/824/309 326/826/59 324/827/57
f 319/828/52 320/829/314 326/830/59
f 326/830/59 320/829/314 327/831/60
f 326/830/59 327/831/60 324/832/57
f 324/832/57 327/831/60 328/833/317
f 329/834/63 318/835/53 325/836/62
f 318/835/53 329/834/63 321/837/315
f 329/834/63 325/836/62 323/838/58
f 329/834/63 323/838/58 330/839/318
f 330/840/318 323/841/58 324/842/57
f 330/840/318 324/842/57 328/843/317
f 327/844/60 320/845/314 331/846/319
f 327/844/60 331/846/319 328/847/317
f 331/846/319 320/845/314 332/848/320
f 328/847/317 331/846/319 333/849/321
f 332/848/320 320/845/314 321/850/315
f 328/847/317 333/849/321 330/851/318
f 332/848/320 321/850/315 334/852/322
f 330/851/318 333/849/321 335/853/323
f 334/852/322 321/850/315 329/854/63
f 330/851/318 335/853/323 329/854/63
f 334/852/322 329/854/63 336/855/324
f 336/855/324 329/854/63 335/853/323
f 333/856/321 331/857/319 337/858/325
f 337/858/325 331/857/319 338/859/326
f 338/859/326 331/857/319 332/860/320
f 333/861/321 337/862/325 335/863/323
f 335/863/323 337/862/325 339/864/327
f 335/863/323 337/862/325 340/865/328
f 340/865/328 337/862/325 341/866/329
f 341/866/329 337/862/325 342/867/330
f 342/867/330 337/862/325 343/868/331
f 332/869/320 334/870/322 338/871/326
f 338/871/326 334/870/322 344/872/332
f 338/871/326 334/870/322 345/873/333
f 338/871/326 345/873/333 346/874/334
f 338/871/326 346/874/334 347/875/335
f 338/871/326 347/875/335 348/876/336
f 334/877/322 336/878/324 349/879/337
f 334/877/322 349/879/337 345/880/333
f 349/879/337 336/878/324 335/881/323
f 349/879/337 335/881/323 340/882/328
f 345/883/333 349/884/337 350/885/338
f 350/885/338 349/884/337 340/886/328
f 345/883/333 350/885/338 351/887/339
f 350/885/338 340/886/328 352/888/340
f 345/883/333 351/887/339 353/889/341
f 352/888/340 340/886/328 354/890/342
f 345/883/333 353/889/341 346/891/334
f 354/890/342 340/886/328 341/892/329
f 346/891/334 353/889/341 355/893/343
f 354/890/342 341/892/329 356/894/344
f 346/891/334 355/893/343 347/895/335
f 356/894/344 341/892/329 342/896/330
f 347/895/335 355/893/343 357/897/345
f 356/894/344 342/896/330 358/898/346
f 347/895/335 357/897/345 358/898/346
f 358/898/346 357/897/345 356/894/344
f 348/899/336 347/900/335 359/901/347
f 359/901/347 347/900/335 358/902/346
f 359/901/347 358/902/346 342/903/330
f 359/901/347 342/903/330 343/904/331
f 355/905/343 353/906/341 360/907/95
f 360/907/95 353/906/341 361/908/96
f 361/908/96 353/906/341 362/909/97
f 362/909/97 353/906/341 351/910/339
f 355/911/343 360/912/95 357/913/345
f 357/913/345 360/912/95 363/914/348
f 357/913/345 363/914/348 364/915/349
f 357/913/345 364/915/349 356/916/344
f 356/917/344 364/918/349 354/919/342
f 354/919/342 364/918/349 365/920/98
f 354/919/342 365/920/98 366/921/350
f 354/919/342 366/921/350 352/922/340
f 350/923/338 352/924/340 367/925/351
f 367/925/351 352/924/340 366/926/350
f 350/923/338 367/925/351 351/927/339
f 351/927/339 367/925/351 362/928/97
f 366/929/350 365/930/98 368/931/102
f 368/931/102 365/930/98 364/932/349
f 366/929/350 368/931/102 369/933/352
f 368/931/102 364/932/349 370/934/353
f 366/929/350 369/933/352 367/935/351
f 370/934/353 364/932/349 371/936/354
f 367/935/351 369/933/352 372/937/355
f 371/936/354 364/932/349 363/938/348
f 367/935/351 372/937/355 362/939/97
f 371/936/354 363/938/348 360/940/95
f 362/939/97 372/937/355 373/941/108
f 371/936/354 360/940/95 374/942/107
f 362/939/97 373/941/108 375/943/109
f 374/942/107 360/940/95 375/943/109
f 362/939/97 375/943/109 361/944/96
f 361/944/96 375/943/109 360/940/95
f 376/945/356 372/946/355 369/947/352
f 376/945/356 369/947/352 377/948/357
f 372/946/355 376/945/356 373/949/108
f 373/949/108 376/945/356 378/950/358
f 377/951/357 369/952/352 368/953/102
f 377/951/357 368/953/102 379/954/359
f 379/954/359 368/953/102 380/955/360
f 380/955/360 368/953/102 370/956/353
f 373/957/108 378/958/358 375/959/109
f 375/959/109 378/958/358 381/960/361
f 375/959/109 381/960/361 382/961/362
f 375/959/109 382/961/362 374/962/107
f 376/963/356 377/964/357 383/965/363
f 383/965/363 377/964/357 379/966/359
f 383/965/363 379/966/359 380/967/360
f 376/963/356 383/965/363 378/968/358
f 378/968/358 383/965/363 381/969/361
f 381/969/361 383/965/363 382/970/362
f 380/971/360 370/972/353 383/973/363
f 383/973/363 370/972/353 371/974/354
f 383/973/363 371/974/354 374/975/107
f 383/973/363 374/975/107 382/976/362
f 384/977/126 385/978/124 386/979/127
f 384/977/126 386/979/127 387/980/364
f 386/979/127 385/978/124 388/981/365
f 388/981/365 385/978/124 389/982/128
f 385/983/124 384/984/126 389/985/128
f 389/985/128 384/984/126 390/986/131
f 390/986/131 384/984/126 391/987/130
f 390/986/131 391/987/130 392/988/133
f 392/988/133 391/987/130 393/989/132
f 392/988/133 393/989/132 394/990/135
f 394/990/135 393/989/132 395/991/134
f 394/990/135 395/991/134 396/992/136
f 388/993/365 389/994/128 397/995/366
f 397/995/366 389/994/128 390/996/131
f 397/995/366 390/996/131 398/997/367
f 398/997/367 390/996/131 392/998/133
f 398/997/367 392/998/133 399/999/368
f 399/999/368 392/998/133 394/1000/135
f 397/995/366 398/997/367 400/1001/369
f 400/1001/369 398/997/367 401/1002/370
f 397/995/366 400/1001/369 402/1003/371
f 388/1004/365 397/1005/366 402/1006/371
f 388/1004/365 402/1006/371 386/1007/127
f 386/1007/127 402/1006/371 403/1008/372
f 403/1008/372 402/1006/371 404/1009/373
f 403/1008/372 404/1009/373 386/1007/127
f 404/1009/373 402/1006/371 400/1010/369
f 386/1007/127 404/1009/373 387/1011/364
f 404/1009/373 400/1010/369 405/1012/374
f 404/1009/373 405/1012/374 387/1011/364
f 405/1012/374 400/1010/369 401/1013/370
f 387/1011/364 405/1012/374 406/1014/375
f 406/1014/375 405/1012/374 407/1015/376
f 407/1015/376 405/1012/374 401/1013/370
f 406/1014/375 407/1015/376 408/1016/377
f 408/1016/377 407/1015/376 409/1017/378
f 407/1015/376 401/1013/370 410/1018/379
f 410/1018/379 401/1013/370 398/1019/367
f 410/1018/379 398/1019/367 399/1020/368
f 410/1018/379 399/1020/368 411/1021/151
f 409/1017/378 407/1015/376 412/1022/380
f 412/1022/380 407/1015/376 410/1018/379
f 409/1017/378 412/1022/380 411/1021/151
f 412/1022/380 410/1018/379 413/1023/381
f 412/1022/380 413/1023/381 411/1021/151
f 411/1021/151 413/1023/381 410/1018/379
f 391/1024/130 384/1025/126 387/1026/364
f 391/1024/130 387/1026/364 406/1027/375
f 391/1024/130 406/1027/375 393/1028/132
f 393/1028/132 406/1027/375 408/1029/377
f 393/1028/132 408/1029/377 395/1030/134
f 395/1030/134 408/1029/377 409/1031/378
f 395/1032/134 409/1033/378 396/1034/136
f 396/1034/136 409/1033/378 411/1035/151
f 396/1034/136 411/1035/151 394/1036/135
f 394/1036/135 411/1035/151 399/1037/368
f 414/1038/226 415/1039/224 416/1040/225
f 414/1038/226 416/1040/225 417/1041/223
f 415/1042/224 414/1043/226 418/1044/229
f 418/1044/229 414/1043/226 419/1045/230
f 415/1046/224 418/1047/229 420/1048/382
f 415/1046/224 420/1048/382 416/1049/225
f 417/1050/223 416/1051/225 421/1052/228
f 421/1052/228 416/1051/225 420/1053/382
f 414/1054/226 417/1055/223 419/1056/230
f 419/1056/230 417/1055/223 421/1057/228
f 418/1058/229 419/1059/230 420/1060/382
f 420/1060/382 419/1059/230 421/1061/228
f 422/1062/383 423/1063/384 424/1064/385
f 424/1064/385 423/1063/384 425/1065/386
f 423/1066/384 422/1067/383 426/1068/387
f 426/1069/387 422/1070/383 424/1071/385
f 423/1072/384 426/1073/387 425/1074/386
f 424/1075/385 425/1076/386 426/1077/387
f 427/1078/388 428/1079/216 429/1080/389
f 427/1078/388 429/1080/389 430/1081/390
f 428/1082/216 427/1083/388 431/1084/391
f 428/1082/216 431/1084/391 432/1085/218
f 431/1086/391 427/1087/388 430/1088/390
f 431/1086/391 430/1088/390 433/1089/392
f 428/1090/216 432/1091/218 429/1092/389
f 429/1092/389 432/1091/218 434/1093/393
f 433/1094/392 430/1095/390 429/1096/389
f 433/1094/392 429/1096/389 434/1097/393
f 431/1098/391 433/1099/392 432/1100/218
f 432/1100/218 433/1099/392 434/1101/393
f 435/1102/394 436/1103/395 437/1104/396
f 435/1102/394 437/1104/396 438/1105/397
f 435/1102/394 438/1105/397 439/1106/398
f 439/1106/398 438/1105/397 440/1107/399
f 435/1102/394 439/1106/398 441/1108/400
f 437/1109/396 436/1110/395 442/1111/401
f 442/1111/401 436/1110/395 443/1112/402
f 443/1113/402 436/1114/395 435/1115/394
f 443/1113/402 435/1115/394 444/1116/403
f 444/1116/403 435/1115/394 441/1117/400
f 437/1118/396 442/1119/401 445/1120/404
f 437/1118/396 445/1120/404 438/1121/397
f 445/1122/404 442/1123/401 443/1124/402
f 445/1122/404 443/1124/402 444/1125/403
f 445/1122/404 444/1125/403 441/1126/400
f 445/1122/404 441/1126/400 446/1127/405
f 446/1128/405 441/1129/400 439/1130/398
f 446/1128/405 439/1130/398 440/1131/399
f 445/1132/404 446/1133/405 438/1134/397
f 438/1134/397 446/1133/405 440/1135/399
